<svg width="797" height="200" viewBox="0 0 797 200" fill="none" xmlns="http://www.w3.org/2000/svg">
<rect width="280" height="200" rx="20"/>
<rect opacity="0.1" width="280" height="200" rx="20" fill="#171B41"/>
<path d="M320.814 20.322C320.814 18.826 321.159 17.484 321.848 16.296C322.552 15.108 323.498 14.184 324.686 13.524C325.889 12.8493 327.201 12.512 328.624 12.512C330.252 12.512 331.697 12.9153 332.958 13.722C334.234 14.514 335.158 15.6433 335.73 17.11H332.716C332.32 16.3033 331.77 15.702 331.066 15.306C330.362 14.91 329.548 14.712 328.624 14.712C327.612 14.712 326.71 14.9393 325.918 15.394C325.126 15.8487 324.503 16.5013 324.048 17.352C323.608 18.2027 323.388 19.1927 323.388 20.322C323.388 21.4513 323.608 22.4413 324.048 23.292C324.503 24.1427 325.126 24.8027 325.918 25.272C326.71 25.7267 327.612 25.954 328.624 25.954C329.548 25.954 330.362 25.756 331.066 25.36C331.77 24.964 332.32 24.3627 332.716 23.556H335.73C335.158 25.0227 334.234 26.152 332.958 26.944C331.697 27.736 330.252 28.132 328.624 28.132C327.187 28.132 325.874 27.802 324.686 27.142C323.498 26.4673 322.552 25.536 321.848 24.348C321.159 23.16 320.814 21.818 320.814 20.322ZM341.174 11.72V28H338.666V11.72H341.174ZM343.63 21.884C343.63 20.6667 343.88 19.5887 344.378 18.65C344.892 17.7113 345.581 16.9853 346.446 16.472C347.326 15.944 348.294 15.68 349.35 15.68C350.304 15.68 351.132 15.8707 351.836 16.252C352.555 16.6187 353.127 17.0807 353.552 17.638V15.878H356.082V28H353.552V26.196C353.127 26.768 352.548 27.2447 351.814 27.626C351.081 28.0073 350.245 28.198 349.306 28.198C348.265 28.198 347.312 27.934 346.446 27.406C345.581 26.8633 344.892 26.1153 344.378 25.162C343.88 24.194 343.63 23.1013 343.63 21.884ZM353.552 21.928C353.552 21.092 353.376 20.366 353.024 19.75C352.687 19.134 352.24 18.6647 351.682 18.342C351.125 18.0193 350.524 17.858 349.878 17.858C349.233 17.858 348.632 18.0193 348.074 18.342C347.517 18.65 347.062 19.112 346.71 19.728C346.373 20.3293 346.204 21.048 346.204 21.884C346.204 22.72 346.373 23.4533 346.71 24.084C347.062 24.7147 347.517 25.1987 348.074 25.536C348.646 25.8587 349.248 26.02 349.878 26.02C350.524 26.02 351.125 25.8587 351.682 25.536C352.24 25.2133 352.687 24.744 353.024 24.128C353.376 23.4973 353.552 22.764 353.552 21.928ZM363.777 28.198C362.823 28.198 361.965 28.0293 361.203 27.692C360.455 27.34 359.861 26.8707 359.421 26.284C358.981 25.6827 358.746 25.0153 358.717 24.282H361.313C361.357 24.7953 361.599 25.228 362.039 25.58C362.493 25.9173 363.058 26.086 363.733 26.086C364.437 26.086 364.979 25.954 365.361 25.69C365.757 25.4113 365.955 25.0593 365.955 24.634C365.955 24.1793 365.735 23.842 365.295 23.622C364.869 23.402 364.187 23.16 363.249 22.896C362.339 22.6467 361.599 22.4047 361.027 22.17C360.455 21.9353 359.956 21.576 359.531 21.092C359.12 20.608 358.915 19.97 358.915 19.178C358.915 18.5327 359.105 17.946 359.487 17.418C359.868 16.8753 360.411 16.45 361.115 16.142C361.833 15.834 362.655 15.68 363.579 15.68C364.957 15.68 366.065 16.032 366.901 16.736C367.751 17.4253 368.206 18.3713 368.265 19.574H365.757C365.713 19.0313 365.493 18.5987 365.097 18.276C364.701 17.9533 364.165 17.792 363.491 17.792C362.831 17.792 362.325 17.9167 361.973 18.166C361.621 18.4153 361.445 18.7453 361.445 19.156C361.445 19.4787 361.562 19.75 361.797 19.97C362.031 20.19 362.317 20.366 362.655 20.498C362.992 20.6153 363.491 20.7693 364.151 20.96C365.031 21.1947 365.749 21.4367 366.307 21.686C366.879 21.9207 367.37 22.2727 367.781 22.742C368.191 23.2113 368.404 23.8347 368.419 24.612C368.419 25.3013 368.228 25.9173 367.847 26.46C367.465 27.0027 366.923 27.428 366.219 27.736C365.529 28.044 364.715 28.198 363.777 28.198ZM375.529 28.198C374.575 28.198 373.717 28.0293 372.955 27.692C372.207 27.34 371.613 26.8707 371.173 26.284C370.733 25.6827 370.498 25.0153 370.469 24.282H373.065C373.109 24.7953 373.351 25.228 373.791 25.58C374.245 25.9173 374.81 26.086 375.485 26.086C376.189 26.086 376.731 25.954 377.113 25.69C377.509 25.4113 377.707 25.0593 377.707 24.634C377.707 24.1793 377.487 23.842 377.047 23.622C376.621 23.402 375.939 23.16 375.001 22.896C374.091 22.6467 373.351 22.4047 372.779 22.17C372.207 21.9353 371.708 21.576 371.283 21.092C370.872 20.608 370.667 19.97 370.667 19.178C370.667 18.5327 370.857 17.946 371.239 17.418C371.62 16.8753 372.163 16.45 372.867 16.142C373.585 15.834 374.407 15.68 375.331 15.68C376.709 15.68 377.817 16.032 378.653 16.736C379.503 17.4253 379.958 18.3713 380.017 19.574H377.509C377.465 19.0313 377.245 18.5987 376.849 18.276C376.453 17.9533 375.917 17.792 375.243 17.792C374.583 17.792 374.077 17.9167 373.725 18.166C373.373 18.4153 373.197 18.7453 373.197 19.156C373.197 19.4787 373.314 19.75 373.549 19.97C373.783 20.19 374.069 20.366 374.407 20.498C374.744 20.6153 375.243 20.7693 375.903 20.96C376.783 21.1947 377.501 21.4367 378.059 21.686C378.631 21.9207 379.122 22.2727 379.533 22.742C379.943 23.2113 380.156 23.8347 380.171 24.612C380.171 25.3013 379.98 25.9173 379.599 26.46C379.217 27.0027 378.675 27.428 377.971 27.736C377.281 28.044 376.467 28.198 375.529 28.198ZM398.473 12.71V14.756H394.403V28H391.895V14.756H387.803V12.71H398.473ZM412.123 21.642C412.123 22.0967 412.094 22.5073 412.035 22.874H402.773C402.847 23.842 403.206 24.6193 403.851 25.206C404.497 25.7927 405.289 26.086 406.227 26.086C407.577 26.086 408.53 25.5213 409.087 24.392H411.793C411.427 25.5067 410.759 26.4233 409.791 27.142C408.838 27.846 407.65 28.198 406.227 28.198C405.069 28.198 404.027 27.9413 403.103 27.428C402.194 26.9 401.475 26.1667 400.947 25.228C400.434 24.2747 400.177 23.1747 400.177 21.928C400.177 20.6813 400.427 19.5887 400.925 18.65C401.439 17.6967 402.15 16.9633 403.059 16.45C403.983 15.9367 405.039 15.68 406.227 15.68C407.371 15.68 408.391 15.9293 409.285 16.428C410.18 16.9267 410.877 17.6307 411.375 18.54C411.874 19.4347 412.123 20.4687 412.123 21.642ZM409.505 20.85C409.491 19.926 409.161 19.1853 408.515 18.628C407.87 18.0707 407.071 17.792 406.117 17.792C405.252 17.792 404.511 18.0707 403.895 18.628C403.279 19.1707 402.913 19.9113 402.795 20.85H409.505ZM413.755 21.928C413.755 20.6813 414.005 19.5887 414.503 18.65C415.017 17.6967 415.721 16.9633 416.615 16.45C417.51 15.9367 418.537 15.68 419.695 15.68C421.162 15.68 422.372 16.032 423.325 16.736C424.293 17.4253 424.946 18.4153 425.283 19.706H422.577C422.357 19.1047 422.005 18.6353 421.521 18.298C421.037 17.9607 420.429 17.792 419.695 17.792C418.669 17.792 417.847 18.1587 417.231 18.892C416.63 19.6107 416.329 20.6227 416.329 21.928C416.329 23.2333 416.63 24.2527 417.231 24.986C417.847 25.7193 418.669 26.086 419.695 26.086C421.147 26.086 422.108 25.448 422.577 24.172H425.283C424.931 25.404 424.271 26.3867 423.303 27.12C422.335 27.8387 421.133 28.198 419.695 28.198C418.537 28.198 417.51 27.9413 416.615 27.428C415.721 26.9 415.017 26.1667 414.503 25.228C414.005 24.2747 413.755 23.1747 413.755 21.928ZM434.053 15.68C434.977 15.68 435.798 15.878 436.517 16.274C437.25 16.67 437.822 17.2567 438.233 18.034C438.658 18.8113 438.871 19.75 438.871 20.85V28H436.385V21.224C436.385 20.1387 436.113 19.31 435.571 18.738C435.028 18.1513 434.287 17.858 433.349 17.858C432.41 17.858 431.662 18.1513 431.105 18.738C430.562 19.31 430.291 20.1387 430.291 21.224V28H427.783V11.72H430.291V17.286C430.716 16.7727 431.251 16.3767 431.897 16.098C432.557 15.8193 433.275 15.68 434.053 15.68ZM448.186 15.68C449.139 15.68 449.99 15.878 450.738 16.274C451.501 16.67 452.095 17.2567 452.52 18.034C452.945 18.8113 453.158 19.75 453.158 20.85V28H450.672V21.224C450.672 20.1387 450.401 19.31 449.858 18.738C449.315 18.1513 448.575 17.858 447.636 17.858C446.697 17.858 445.949 18.1513 445.392 18.738C444.849 19.31 444.578 20.1387 444.578 21.224V28H442.07V15.878H444.578V17.264C444.989 16.7653 445.509 16.3767 446.14 16.098C446.785 15.8193 447.467 15.68 448.186 15.68ZM461.615 28.198C460.471 28.198 459.437 27.9413 458.513 27.428C457.589 26.9 456.863 26.1667 456.335 25.228C455.807 24.2747 455.543 23.1747 455.543 21.928C455.543 20.696 455.814 19.6033 456.357 18.65C456.9 17.6967 457.64 16.9633 458.579 16.45C459.518 15.9367 460.566 15.68 461.725 15.68C462.884 15.68 463.932 15.9367 464.871 16.45C465.81 16.9633 466.55 17.6967 467.093 18.65C467.636 19.6033 467.907 20.696 467.907 21.928C467.907 23.16 467.628 24.2527 467.071 25.206C466.514 26.1593 465.751 26.9 464.783 27.428C463.83 27.9413 462.774 28.198 461.615 28.198ZM461.615 26.02C462.26 26.02 462.862 25.866 463.419 25.558C463.991 25.25 464.453 24.788 464.805 24.172C465.157 23.556 465.333 22.808 465.333 21.928C465.333 21.048 465.164 20.3073 464.827 19.706C464.49 19.09 464.042 18.628 463.485 18.32C462.928 18.012 462.326 17.858 461.681 17.858C461.036 17.858 460.434 18.012 459.877 18.32C459.334 18.628 458.902 19.09 458.579 19.706C458.256 20.3073 458.095 21.048 458.095 21.928C458.095 23.2333 458.425 24.2453 459.085 24.964C459.76 25.668 460.603 26.02 461.615 26.02ZM472.894 11.72V28H470.386V11.72H472.894ZM481.445 28.198C480.301 28.198 479.267 27.9413 478.343 27.428C477.419 26.9 476.693 26.1667 476.165 25.228C475.637 24.2747 475.373 23.1747 475.373 21.928C475.373 20.696 475.644 19.6033 476.187 18.65C476.73 17.6967 477.47 16.9633 478.409 16.45C479.348 15.9367 480.396 15.68 481.555 15.68C482.714 15.68 483.762 15.9367 484.701 16.45C485.64 16.9633 486.38 17.6967 486.923 18.65C487.466 19.6033 487.737 20.696 487.737 21.928C487.737 23.16 487.458 24.2527 486.901 25.206C486.344 26.1593 485.581 26.9 484.613 27.428C483.66 27.9413 482.604 28.198 481.445 28.198ZM481.445 26.02C482.09 26.02 482.692 25.866 483.249 25.558C483.821 25.25 484.283 24.788 484.635 24.172C484.987 23.556 485.163 22.808 485.163 21.928C485.163 21.048 484.994 20.3073 484.657 19.706C484.32 19.09 483.872 18.628 483.315 18.32C482.758 18.012 482.156 17.858 481.511 17.858C480.866 17.858 480.264 18.012 479.707 18.32C479.164 18.628 478.732 19.09 478.409 19.706C478.086 20.3073 477.925 21.048 477.925 21.928C477.925 23.2333 478.255 24.2453 478.915 24.964C479.59 25.668 480.433 26.02 481.445 26.02ZM495.1 15.68C496.039 15.68 496.868 15.8707 497.586 16.252C498.32 16.6187 498.892 17.0807 499.302 17.638V15.878H501.832V28.198C501.832 29.3127 501.598 30.3027 501.128 31.168C500.659 32.048 499.977 32.7373 499.082 33.236C498.202 33.7347 497.146 33.984 495.914 33.984C494.272 33.984 492.908 33.5953 491.822 32.818C490.737 32.0553 490.121 31.014 489.974 29.694H492.46C492.651 30.3247 493.054 30.8307 493.67 31.212C494.301 31.608 495.049 31.806 495.914 31.806C496.926 31.806 497.74 31.498 498.356 30.882C498.987 30.266 499.302 29.3713 499.302 28.198V26.174C498.877 26.746 498.298 27.23 497.564 27.626C496.846 28.0073 496.024 28.198 495.1 28.198C494.044 28.198 493.076 27.934 492.196 27.406C491.331 26.8633 490.642 26.1153 490.128 25.162C489.63 24.194 489.38 23.1013 489.38 21.884C489.38 20.6667 489.63 19.5887 490.128 18.65C490.642 17.7113 491.331 16.9853 492.196 16.472C493.076 15.944 494.044 15.68 495.1 15.68ZM499.302 21.928C499.302 21.092 499.126 20.366 498.774 19.75C498.437 19.134 497.99 18.6647 497.432 18.342C496.875 18.0193 496.274 17.858 495.628 17.858C494.983 17.858 494.382 18.0193 493.824 18.342C493.267 18.65 492.812 19.112 492.46 19.728C492.123 20.3293 491.954 21.048 491.954 21.884C491.954 22.72 492.123 23.4533 492.46 24.084C492.812 24.7147 493.267 25.1987 493.824 25.536C494.396 25.8587 494.998 26.02 495.628 26.02C496.274 26.02 496.875 25.8587 497.432 25.536C497.99 25.2133 498.437 24.744 498.774 24.128C499.126 23.4973 499.302 22.764 499.302 21.928ZM506.403 14.272C505.948 14.272 505.567 14.118 505.259 13.81C504.951 13.502 504.797 13.1207 504.797 12.666C504.797 12.2113 504.951 11.83 505.259 11.522C505.567 11.214 505.948 11.06 506.403 11.06C506.843 11.06 507.217 11.214 507.525 11.522C507.833 11.83 507.987 12.2113 507.987 12.666C507.987 13.1207 507.833 13.502 507.525 13.81C507.217 14.118 506.843 14.272 506.403 14.272ZM507.635 15.878V28H505.127V15.878H507.635ZM522.037 21.642C522.037 22.0967 522.008 22.5073 521.949 22.874H512.687C512.761 23.842 513.12 24.6193 513.765 25.206C514.411 25.7927 515.203 26.086 516.141 26.086C517.491 26.086 518.444 25.5213 519.001 24.392H521.707C521.341 25.5067 520.673 26.4233 519.705 27.142C518.752 27.846 517.564 28.198 516.141 28.198C514.983 28.198 513.941 27.9413 513.017 27.428C512.108 26.9 511.389 26.1667 510.861 25.228C510.348 24.2747 510.091 23.1747 510.091 21.928C510.091 20.6813 510.341 19.5887 510.839 18.65C511.353 17.6967 512.064 16.9633 512.973 16.45C513.897 15.9367 514.953 15.68 516.141 15.68C517.285 15.68 518.305 15.9293 519.199 16.428C520.094 16.9267 520.791 17.6307 521.289 18.54C521.788 19.4347 522.037 20.4687 522.037 21.642ZM519.419 20.85C519.405 19.926 519.075 19.1853 518.429 18.628C517.784 18.0707 516.985 17.792 516.031 17.792C515.166 17.792 514.425 18.0707 513.809 18.628C513.193 19.1707 512.827 19.9113 512.709 20.85H519.419ZM528.905 28.198C527.952 28.198 527.094 28.0293 526.331 27.692C525.583 27.34 524.989 26.8707 524.549 26.284C524.109 25.6827 523.875 25.0153 523.845 24.282H526.441C526.485 24.7953 526.727 25.228 527.167 25.58C527.622 25.9173 528.187 26.086 528.861 26.086C529.565 26.086 530.108 25.954 530.489 25.69C530.885 25.4113 531.083 25.0593 531.083 24.634C531.083 24.1793 530.863 23.842 530.423 23.622C529.998 23.402 529.316 23.16 528.377 22.896C527.468 22.6467 526.727 22.4047 526.155 22.17C525.583 21.9353 525.085 21.576 524.659 21.092C524.249 20.608 524.043 19.97 524.043 19.178C524.043 18.5327 524.234 17.946 524.615 17.418C524.997 16.8753 525.539 16.45 526.243 16.142C526.962 15.834 527.783 15.68 528.707 15.68C530.086 15.68 531.193 16.032 532.029 16.736C532.88 17.4253 533.335 18.3713 533.393 19.574H530.885C530.841 19.0313 530.621 18.5987 530.225 18.276C529.829 17.9533 529.294 17.792 528.619 17.792C527.959 17.792 527.453 17.9167 527.101 18.166C526.749 18.4153 526.573 18.7453 526.573 19.156C526.573 19.4787 526.691 19.75 526.925 19.97C527.16 20.19 527.446 20.366 527.783 20.498C528.121 20.6153 528.619 20.7693 529.279 20.96C530.159 21.1947 530.878 21.4367 531.435 21.686C532.007 21.9207 532.499 22.2727 532.909 22.742C533.32 23.2113 533.533 23.8347 533.547 24.612C533.547 25.3013 533.357 25.9173 532.975 26.46C532.594 27.0027 532.051 27.428 531.347 27.736C530.658 28.044 529.844 28.198 528.905 28.198ZM544.48 12.71V28H541.972V12.71H544.48ZM553.889 15.68C554.842 15.68 555.693 15.878 556.441 16.274C557.204 16.67 557.798 17.2567 558.223 18.034C558.648 18.8113 558.861 19.75 558.861 20.85V28H556.375V21.224C556.375 20.1387 556.104 19.31 555.561 18.738C555.018 18.1513 554.278 17.858 553.339 17.858C552.4 17.858 551.652 18.1513 551.095 18.738C550.552 19.31 550.281 20.1387 550.281 21.224V28H547.773V15.878H550.281V17.264C550.692 16.7653 551.212 16.3767 551.843 16.098C552.488 15.8193 553.17 15.68 553.889 15.68ZM561.224 21.928C561.224 20.6813 561.473 19.5887 561.972 18.65C562.485 17.6967 563.189 16.9633 564.084 16.45C564.979 15.9367 566.005 15.68 567.164 15.68C568.631 15.68 569.841 16.032 570.794 16.736C571.762 17.4253 572.415 18.4153 572.752 19.706H570.046C569.826 19.1047 569.474 18.6353 568.99 18.298C568.506 17.9607 567.897 17.792 567.164 17.792C566.137 17.792 565.316 18.1587 564.7 18.892C564.099 19.6107 563.798 20.6227 563.798 21.928C563.798 23.2333 564.099 24.2527 564.7 24.986C565.316 25.7193 566.137 26.086 567.164 26.086C568.616 26.086 569.577 25.448 570.046 24.172H572.752C572.4 25.404 571.74 26.3867 570.772 27.12C569.804 27.8387 568.601 28.198 567.164 28.198C566.005 28.198 564.979 27.9413 564.084 27.428C563.189 26.9 562.485 26.1667 561.972 25.228C561.473 24.2747 561.224 23.1747 561.224 21.928ZM576.264 28.154C575.809 28.154 575.428 28 575.12 27.692C574.812 27.384 574.658 27.0027 574.658 26.548C574.658 26.0933 574.812 25.712 575.12 25.404C575.428 25.096 575.809 24.942 576.264 24.942C576.704 24.942 577.078 25.096 577.386 25.404C577.694 25.712 577.848 26.0933 577.848 26.548C577.848 27.0027 577.694 27.384 577.386 27.692C577.078 28 576.704 28.154 576.264 28.154ZM585.437 20.322C585.437 18.826 585.782 17.484 586.471 16.296C587.175 15.108 588.121 14.184 589.309 13.524C590.512 12.8493 591.824 12.512 593.247 12.512C594.875 12.512 596.32 12.9153 597.581 13.722C598.857 14.514 599.781 15.6433 600.353 17.11H597.339C596.943 16.3033 596.393 15.702 595.689 15.306C594.985 14.91 594.171 14.712 593.247 14.712C592.235 14.712 591.333 14.9393 590.541 15.394C589.749 15.8487 589.126 16.5013 588.671 17.352C588.231 18.2027 588.011 19.1927 588.011 20.322C588.011 21.4513 588.231 22.4413 588.671 23.292C589.126 24.1427 589.749 24.8027 590.541 25.272C591.333 25.7267 592.235 25.954 593.247 25.954C594.171 25.954 594.985 25.756 595.689 25.36C596.393 24.964 596.943 24.3627 597.339 23.556H600.353C599.781 25.0227 598.857 26.152 597.581 26.944C596.32 27.736 594.875 28.132 593.247 28.132C591.81 28.132 590.497 27.802 589.309 27.142C588.121 26.4673 587.175 25.536 586.471 24.348C585.782 23.16 585.437 21.818 585.437 20.322ZM605.797 11.72V28H603.289V11.72H605.797ZM614.347 28.198C613.203 28.198 612.169 27.9413 611.245 27.428C610.321 26.9 609.595 26.1667 609.067 25.228C608.539 24.2747 608.275 23.1747 608.275 21.928C608.275 20.696 608.547 19.6033 609.089 18.65C609.632 17.6967 610.373 16.9633 611.311 16.45C612.25 15.9367 613.299 15.68 614.457 15.68C615.616 15.68 616.665 15.9367 617.603 16.45C618.542 16.9633 619.283 17.6967 619.825 18.65C620.368 19.6033 620.639 20.696 620.639 21.928C620.639 23.16 620.361 24.2527 619.803 25.206C619.246 26.1593 618.483 26.9 617.515 27.428C616.562 27.9413 615.506 28.198 614.347 28.198ZM614.347 26.02C614.993 26.02 615.594 25.866 616.151 25.558C616.723 25.25 617.185 24.788 617.537 24.172C617.889 23.556 618.065 22.808 618.065 21.928C618.065 21.048 617.897 20.3073 617.559 19.706C617.222 19.09 616.775 18.628 616.217 18.32C615.66 18.012 615.059 17.858 614.413 17.858C613.768 17.858 613.167 18.012 612.609 18.32C612.067 18.628 611.634 19.09 611.311 19.706C610.989 20.3073 610.827 21.048 610.827 21.928C610.827 23.2333 611.157 24.2453 611.817 24.964C612.492 25.668 613.335 26.02 614.347 26.02ZM627.519 28.198C626.565 28.198 625.707 28.0293 624.945 27.692C624.197 27.34 623.603 26.8707 623.163 26.284C622.723 25.6827 622.488 25.0153 622.459 24.282H625.055C625.099 24.7953 625.341 25.228 625.781 25.58C626.235 25.9173 626.8 26.086 627.475 26.086C628.179 26.086 628.721 25.954 629.103 25.69C629.499 25.4113 629.697 25.0593 629.697 24.634C629.697 24.1793 629.477 23.842 629.037 23.622C628.611 23.402 627.929 23.16 626.991 22.896C626.081 22.6467 625.341 22.4047 624.769 22.17C624.197 21.9353 623.698 21.576 623.273 21.092C622.862 20.608 622.657 19.97 622.657 19.178C622.657 18.5327 622.847 17.946 623.229 17.418C623.61 16.8753 624.153 16.45 624.857 16.142C625.575 15.834 626.397 15.68 627.321 15.68C628.699 15.68 629.807 16.032 630.643 16.736C631.493 17.4253 631.948 18.3713 632.007 19.574H629.499C629.455 19.0313 629.235 18.5987 628.839 18.276C628.443 17.9533 627.907 17.792 627.233 17.792C626.573 17.792 626.067 17.9167 625.715 18.166C625.363 18.4153 625.187 18.7453 625.187 19.156C625.187 19.4787 625.304 19.75 625.539 19.97C625.773 20.19 626.059 20.366 626.397 20.498C626.734 20.6153 627.233 20.7693 627.893 20.96C628.773 21.1947 629.491 21.4367 630.049 21.686C630.621 21.9207 631.112 22.2727 631.523 22.742C631.933 23.2113 632.146 23.8347 632.161 24.612C632.161 25.3013 631.97 25.9173 631.589 26.46C631.207 27.0027 630.665 27.428 629.961 27.736C629.271 28.044 628.457 28.198 627.519 28.198ZM645.981 21.642C645.981 22.0967 645.951 22.5073 645.893 22.874H636.631C636.704 23.842 637.063 24.6193 637.709 25.206C638.354 25.7927 639.146 26.086 640.085 26.086C641.434 26.086 642.387 25.5213 642.945 24.392H645.651C645.284 25.5067 644.617 26.4233 643.649 27.142C642.695 27.846 641.507 28.198 640.085 28.198C638.926 28.198 637.885 27.9413 636.961 27.428C636.051 26.9 635.333 26.1667 634.805 25.228C634.291 24.2747 634.035 23.1747 634.035 21.928C634.035 20.6813 634.284 19.5887 634.783 18.65C635.296 17.6967 636.007 16.9633 636.917 16.45C637.841 15.9367 638.897 15.68 640.085 15.68C641.229 15.68 642.248 15.9293 643.143 16.428C644.037 16.9267 644.734 17.6307 645.233 18.54C645.731 19.4347 645.981 20.4687 645.981 21.642ZM643.363 20.85C643.348 19.926 643.018 19.1853 642.373 18.628C641.727 18.0707 640.928 17.792 639.975 17.792C639.109 17.792 638.369 18.0707 637.753 18.628C637.137 19.1707 636.77 19.9113 636.653 20.85H643.363ZM652.849 28.198C651.895 28.198 651.037 28.0293 650.275 27.692C649.527 27.34 648.933 26.8707 648.493 26.284C648.053 25.6827 647.818 25.0153 647.789 24.282H650.385C650.429 24.7953 650.671 25.228 651.111 25.58C651.565 25.9173 652.13 26.086 652.805 26.086C653.509 26.086 654.051 25.954 654.433 25.69C654.829 25.4113 655.027 25.0593 655.027 24.634C655.027 24.1793 654.807 23.842 654.367 23.622C653.941 23.402 653.259 23.16 652.321 22.896C651.411 22.6467 650.671 22.4047 650.099 22.17C649.527 21.9353 649.028 21.576 648.603 21.092C648.192 20.608 647.987 19.97 647.987 19.178C647.987 18.5327 648.177 17.946 648.559 17.418C648.94 16.8753 649.483 16.45 650.187 16.142C650.905 15.834 651.727 15.68 652.651 15.68C654.029 15.68 655.137 16.032 655.973 16.736C656.823 17.4253 657.278 18.3713 657.337 19.574H654.829C654.785 19.0313 654.565 18.5987 654.169 18.276C653.773 17.9533 653.237 17.792 652.563 17.792C651.903 17.792 651.397 17.9167 651.045 18.166C650.693 18.4153 650.517 18.7453 650.517 19.156C650.517 19.4787 650.634 19.75 650.869 19.97C651.103 20.19 651.389 20.366 651.727 20.498C652.064 20.6153 652.563 20.7693 653.223 20.96C654.103 21.1947 654.821 21.4367 655.379 21.686C655.951 21.9207 656.442 22.2727 656.853 22.742C657.263 23.2113 657.476 23.8347 657.491 24.612C657.491 25.3013 657.3 25.9173 656.919 26.46C656.537 27.0027 655.995 27.428 655.291 27.736C654.601 28.044 653.787 28.198 652.849 28.198ZM676.234 23.644C676.234 24.3773 676.05 25.0667 675.684 25.712C675.332 26.3573 674.804 26.9 674.1 27.34C673.41 27.78 672.589 28.044 671.636 28.132V29.914H670.206V28.132C668.827 28 667.712 27.5673 666.862 26.834C666.011 26.1007 665.586 25.1327 665.586 23.93H668.27C668.314 24.502 668.497 24.9787 668.82 25.36C669.142 25.7267 669.604 25.9613 670.206 26.064V21.224C669.223 20.9747 668.424 20.7253 667.808 20.476C667.192 20.212 666.664 19.8013 666.224 19.244C665.798 18.6867 665.586 17.924 665.586 16.956C665.586 15.7387 666.011 14.734 666.862 13.942C667.712 13.1353 668.827 12.666 670.206 12.534V10.752H671.636V12.534C672.926 12.6513 673.96 13.062 674.738 13.766C675.53 14.4553 675.977 15.4087 676.08 16.626H673.396C673.352 16.1713 673.176 15.768 672.868 15.416C672.56 15.0493 672.149 14.8 671.636 14.668V19.42C672.618 19.6547 673.418 19.904 674.034 20.168C674.65 20.4173 675.17 20.8207 675.596 21.378C676.021 21.9207 676.234 22.676 676.234 23.644ZM668.138 16.824C668.138 17.4253 668.314 17.8947 668.666 18.232C669.032 18.5693 669.546 18.8407 670.206 19.046V14.602C669.575 14.6753 669.069 14.9027 668.688 15.284C668.321 15.6653 668.138 16.1787 668.138 16.824ZM671.636 26.064C672.281 25.9613 672.787 25.7047 673.154 25.294C673.52 24.8687 673.704 24.3627 673.704 23.776C673.704 23.1893 673.52 22.7347 673.154 22.412C672.802 22.0747 672.296 21.8033 671.636 21.598V26.064ZM679.85 15.922C679.938 14.558 680.459 13.4947 681.412 12.732C682.38 11.9693 683.612 11.588 685.108 11.588C686.135 11.588 687.022 11.7713 687.77 12.138C688.518 12.5047 689.083 13.0033 689.464 13.634C689.846 14.2647 690.036 14.976 690.036 15.768C690.036 16.6773 689.794 17.4547 689.31 18.1C688.826 18.7453 688.247 19.178 687.572 19.398V19.486C688.438 19.75 689.112 20.234 689.596 20.938C690.08 21.6273 690.322 22.5147 690.322 23.6C690.322 24.4653 690.124 25.2353 689.728 25.91C689.332 26.5847 688.746 27.12 687.968 27.516C687.191 27.8973 686.26 28.088 685.174 28.088C683.59 28.088 682.285 27.6847 681.258 26.878C680.246 26.0567 679.704 24.8833 679.63 23.358H682.05C682.109 24.1353 682.41 24.7733 682.952 25.272C683.495 25.756 684.228 25.998 685.152 25.998C686.047 25.998 686.736 25.756 687.22 25.272C687.704 24.7733 687.946 24.1353 687.946 23.358C687.946 22.3313 687.616 21.6053 686.956 21.18C686.311 20.74 685.314 20.52 683.964 20.52H683.392V18.452H683.986C685.174 18.4373 686.076 18.2393 686.692 17.858C687.323 17.4767 687.638 16.8753 687.638 16.054C687.638 15.35 687.411 14.7927 686.956 14.382C686.502 13.9567 685.856 13.744 685.02 13.744C684.199 13.744 683.561 13.9567 683.106 14.382C682.652 14.7927 682.38 15.306 682.292 15.922H679.85ZM692.957 19.772C692.957 17.2347 693.382 15.2547 694.233 13.832C695.098 12.3947 696.579 11.676 698.677 11.676C700.774 11.676 702.248 12.3947 703.099 13.832C703.964 15.2547 704.397 17.2347 704.397 19.772C704.397 22.3387 703.964 24.348 703.099 25.8C702.248 27.2373 700.774 27.956 698.677 27.956C696.579 27.956 695.098 27.2373 694.233 25.8C693.382 24.348 692.957 22.3387 692.957 19.772ZM701.933 19.772C701.933 18.584 701.852 17.5793 701.691 16.758C701.544 15.9367 701.236 15.2693 700.767 14.756C700.297 14.228 699.601 13.964 698.677 13.964C697.753 13.964 697.056 14.228 696.587 14.756C696.117 15.2693 695.802 15.9367 695.641 16.758C695.494 17.5793 695.421 18.584 695.421 19.772C695.421 21.004 695.494 22.038 695.641 22.874C695.787 23.71 696.095 24.3847 696.565 24.898C697.049 25.4113 697.753 25.668 698.677 25.668C699.601 25.668 700.297 25.4113 700.767 24.898C701.251 24.3847 701.566 23.71 701.713 22.874C701.859 22.038 701.933 21.004 701.933 19.772ZM729.199 12.71V28H726.691V17.528L722.027 28H720.289L715.603 17.528V28H713.095V12.71H715.801L721.169 24.7L726.515 12.71H729.199ZM733.772 14.272C733.317 14.272 732.936 14.118 732.628 13.81C732.32 13.502 732.166 13.1207 732.166 12.666C732.166 12.2113 732.32 11.83 732.628 11.522C732.936 11.214 733.317 11.06 733.772 11.06C734.212 11.06 734.586 11.214 734.894 11.522C735.202 11.83 735.356 12.2113 735.356 12.666C735.356 13.1207 735.202 13.502 734.894 13.81C734.586 14.118 734.212 14.272 733.772 14.272ZM735.004 15.878V28H732.496V15.878H735.004ZM740.804 11.72V28H738.296V11.72H740.804ZM746.605 11.72V28H744.097V11.72H746.605ZM751.174 14.272C750.719 14.272 750.338 14.118 750.03 13.81C749.722 13.502 749.568 13.1207 749.568 12.666C749.568 12.2113 749.722 11.83 750.03 11.522C750.338 11.214 750.719 11.06 751.174 11.06C751.614 11.06 751.988 11.214 752.296 11.522C752.604 11.83 752.758 12.2113 752.758 12.666C752.758 13.1207 752.604 13.502 752.296 13.81C751.988 14.118 751.614 14.272 751.174 14.272ZM752.406 15.878V28H749.898V15.878H752.406ZM760.957 28.198C759.813 28.198 758.779 27.9413 757.855 27.428C756.931 26.9 756.205 26.1667 755.677 25.228C755.149 24.2747 754.885 23.1747 754.885 21.928C754.885 20.696 755.156 19.6033 755.699 18.65C756.241 17.6967 756.982 16.9633 757.921 16.45C758.859 15.9367 759.908 15.68 761.067 15.68C762.225 15.68 763.274 15.9367 764.213 16.45C765.151 16.9633 765.892 17.6967 766.435 18.65C766.977 19.6033 767.249 20.696 767.249 21.928C767.249 23.16 766.97 24.2527 766.413 25.206C765.855 26.1593 765.093 26.9 764.125 27.428C763.171 27.9413 762.115 28.198 760.957 28.198ZM760.957 26.02C761.602 26.02 762.203 25.866 762.761 25.558C763.333 25.25 763.795 24.788 764.147 24.172C764.499 23.556 764.675 22.808 764.675 21.928C764.675 21.048 764.506 20.3073 764.169 19.706C763.831 19.09 763.384 18.628 762.827 18.32C762.269 18.012 761.668 17.858 761.023 17.858C760.377 17.858 759.776 18.012 759.219 18.32C758.676 18.628 758.243 19.09 757.921 19.706C757.598 20.3073 757.437 21.048 757.437 21.928C757.437 23.2333 757.767 24.2453 758.427 24.964C759.101 25.668 759.945 26.02 760.957 26.02ZM775.844 15.68C776.797 15.68 777.648 15.878 778.396 16.274C779.159 16.67 779.753 17.2567 780.178 18.034C780.603 18.8113 780.816 19.75 780.816 20.85V28H778.33V21.224C778.33 20.1387 778.059 19.31 777.516 18.738C776.973 18.1513 776.233 17.858 775.294 17.858C774.355 17.858 773.607 18.1513 773.05 18.738C772.507 19.31 772.236 20.1387 772.236 21.224V28H769.728V15.878H772.236V17.264C772.647 16.7653 773.167 16.3767 773.798 16.098C774.443 15.8193 775.125 15.68 775.844 15.68ZM326.688 68.154C325.661 68.154 324.737 67.978 323.916 67.626C323.095 67.2593 322.449 66.746 321.98 66.086C321.511 65.426 321.276 64.656 321.276 63.776H323.96C324.019 64.436 324.275 64.9787 324.73 65.404C325.199 65.8293 325.852 66.042 326.688 66.042C327.553 66.042 328.228 65.8367 328.712 65.426C329.196 65.0007 329.438 64.458 329.438 63.798C329.438 63.2847 329.284 62.8667 328.976 62.544C328.683 62.2213 328.309 61.972 327.854 61.796C327.414 61.62 326.798 61.4293 326.006 61.224C325.009 60.96 324.195 60.696 323.564 60.432C322.948 60.1533 322.42 59.728 321.98 59.156C321.54 58.584 321.32 57.8213 321.32 56.868C321.32 55.988 321.54 55.218 321.98 54.558C322.42 53.898 323.036 53.392 323.828 53.04C324.62 52.688 325.537 52.512 326.578 52.512C328.059 52.512 329.269 52.886 330.208 53.634C331.161 54.3673 331.689 55.3793 331.792 56.67H329.02C328.976 56.1127 328.712 55.636 328.228 55.24C327.744 54.844 327.106 54.646 326.314 54.646C325.595 54.646 325.009 54.8293 324.554 55.196C324.099 55.5627 323.872 56.0907 323.872 56.78C323.872 57.2493 324.011 57.638 324.29 57.946C324.583 58.2393 324.95 58.474 325.39 58.65C325.83 58.826 326.431 59.0167 327.194 59.222C328.206 59.5007 329.027 59.7793 329.658 60.058C330.303 60.3367 330.846 60.7693 331.286 61.356C331.741 61.928 331.968 62.698 331.968 63.666C331.968 64.4433 331.755 65.1767 331.33 65.866C330.919 66.5553 330.311 67.1127 329.504 67.538C328.712 67.9487 327.773 68.154 326.688 68.154ZM346.037 61.642C346.037 62.0967 346.008 62.5073 345.949 62.874H336.687C336.761 63.842 337.12 64.6193 337.765 65.206C338.411 65.7927 339.203 66.086 340.141 66.086C341.491 66.086 342.444 65.5213 343.001 64.392H345.707C345.341 65.5067 344.673 66.4233 343.705 67.142C342.752 67.846 341.564 68.198 340.141 68.198C338.983 68.198 337.941 67.9413 337.017 67.428C336.108 66.9 335.389 66.1667 334.861 65.228C334.348 64.2747 334.091 63.1747 334.091 61.928C334.091 60.6813 334.341 59.5887 334.839 58.65C335.353 57.6967 336.064 56.9633 336.973 56.45C337.897 55.9367 338.953 55.68 340.141 55.68C341.285 55.68 342.305 55.9293 343.199 56.428C344.094 56.9267 344.791 57.6307 345.289 58.54C345.788 59.4347 346.037 60.4687 346.037 61.642ZM343.419 60.85C343.405 59.926 343.075 59.1853 342.429 58.628C341.784 58.0707 340.985 57.792 340.031 57.792C339.166 57.792 338.425 58.0707 337.809 58.628C337.193 59.1707 336.827 59.9113 336.709 60.85H343.419ZM351.013 57.638C351.38 57.022 351.864 56.5453 352.465 56.208C353.081 55.856 353.807 55.68 354.643 55.68V58.276H354.005C353.023 58.276 352.275 58.5253 351.761 59.024C351.263 59.5227 351.013 60.388 351.013 61.62V68H348.505V55.878H351.013V57.638ZM358.225 54.272C357.77 54.272 357.389 54.118 357.081 53.81C356.773 53.502 356.619 53.1207 356.619 52.666C356.619 52.2113 356.773 51.83 357.081 51.522C357.389 51.214 357.77 51.06 358.225 51.06C358.665 51.06 359.039 51.214 359.347 51.522C359.655 51.83 359.809 52.2113 359.809 52.666C359.809 53.1207 359.655 53.502 359.347 53.81C359.039 54.118 358.665 54.272 358.225 54.272ZM359.457 55.878V68H356.949V55.878H359.457ZM373.86 61.642C373.86 62.0967 373.83 62.5073 373.772 62.874H364.51C364.583 63.842 364.942 64.6193 365.588 65.206C366.233 65.7927 367.025 66.086 367.964 66.086C369.313 66.086 370.266 65.5213 370.824 64.392H373.53C373.163 65.5067 372.496 66.4233 371.528 67.142C370.574 67.846 369.386 68.198 367.964 68.198C366.805 68.198 365.764 67.9413 364.84 67.428C363.93 66.9 363.212 66.1667 362.684 65.228C362.17 64.2747 361.914 63.1747 361.914 61.928C361.914 60.6813 362.163 59.5887 362.662 58.65C363.175 57.6967 363.886 56.9633 364.796 56.45C365.72 55.9367 366.776 55.68 367.964 55.68C369.108 55.68 370.127 55.9293 371.022 56.428C371.916 56.9267 372.613 57.6307 373.112 58.54C373.61 59.4347 373.86 60.4687 373.86 61.642ZM371.242 60.85C371.227 59.926 370.897 59.1853 370.252 58.628C369.606 58.0707 368.807 57.792 367.854 57.792C366.988 57.792 366.248 58.0707 365.632 58.628C365.016 59.1707 364.649 59.9113 364.532 60.85H371.242ZM380.728 68.198C379.774 68.198 378.916 68.0293 378.154 67.692C377.406 67.34 376.812 66.8707 376.372 66.284C375.932 65.6827 375.697 65.0153 375.668 64.282H378.264C378.308 64.7953 378.55 65.228 378.99 65.58C379.444 65.9173 380.009 66.086 380.684 66.086C381.388 66.086 381.93 65.954 382.312 65.69C382.708 65.4113 382.906 65.0593 382.906 64.634C382.906 64.1793 382.686 63.842 382.246 63.622C381.82 63.402 381.138 63.16 380.2 62.896C379.29 62.6467 378.55 62.4047 377.978 62.17C377.406 61.9353 376.907 61.576 376.482 61.092C376.071 60.608 375.866 59.97 375.866 59.178C375.866 58.5327 376.056 57.946 376.438 57.418C376.819 56.8753 377.362 56.45 378.066 56.142C378.784 55.834 379.606 55.68 380.53 55.68C381.908 55.68 383.016 56.032 383.852 56.736C384.702 57.4253 385.157 58.3713 385.216 59.574H382.708C382.664 59.0313 382.444 58.5987 382.048 58.276C381.652 57.9533 381.116 57.792 380.442 57.792C379.782 57.792 379.276 57.9167 378.924 58.166C378.572 58.4153 378.396 58.7453 378.396 59.156C378.396 59.4787 378.513 59.75 378.748 59.97C378.982 60.19 379.268 60.366 379.606 60.498C379.943 60.6153 380.442 60.7693 381.102 60.96C381.982 61.1947 382.7 61.4367 383.258 61.686C383.83 61.9207 384.321 62.2727 384.732 62.742C385.142 63.2113 385.355 63.8347 385.37 64.612C385.37 65.3013 385.179 65.9173 384.798 66.46C384.416 67.0027 383.874 67.428 383.17 67.736C382.48 68.044 381.666 68.198 380.728 68.198ZM403.013 64.876H396.611L395.511 68H392.893L398.371 52.688H401.275L406.753 68H404.113L403.013 64.876ZM402.309 62.83L399.823 55.724L397.315 62.83H402.309ZM423.847 52.71V54.756H417.357V59.266H422.417V61.312H417.357V68H414.849V52.71H423.847ZM427.447 54.272C426.993 54.272 426.611 54.118 426.303 53.81C425.995 53.502 425.841 53.1207 425.841 52.666C425.841 52.2113 425.995 51.83 426.303 51.522C426.611 51.214 426.993 51.06 427.447 51.06C427.887 51.06 428.261 51.214 428.569 51.522C428.877 51.83 429.031 52.2113 429.031 52.666C429.031 53.1207 428.877 53.502 428.569 53.81C428.261 54.118 427.887 54.272 427.447 54.272ZM428.679 55.878V68H426.171V55.878H428.679ZM438.088 55.68C439.042 55.68 439.892 55.878 440.64 56.274C441.403 56.67 441.997 57.2567 442.422 58.034C442.848 58.8113 443.06 59.75 443.06 60.85V68H440.574V61.224C440.574 60.1387 440.303 59.31 439.76 58.738C439.218 58.1513 438.477 57.858 437.538 57.858C436.6 57.858 435.852 58.1513 435.294 58.738C434.752 59.31 434.48 60.1387 434.48 61.224V68H431.972V55.878H434.48V57.264C434.891 56.7653 435.412 56.3767 436.042 56.098C436.688 55.8193 437.37 55.68 438.088 55.68ZM445.423 61.884C445.423 60.6667 445.673 59.5887 446.171 58.65C446.685 57.7113 447.374 56.9853 448.239 56.472C449.119 55.944 450.087 55.68 451.143 55.68C452.097 55.68 452.925 55.8707 453.629 56.252C454.348 56.6187 454.92 57.0807 455.345 57.638V55.878H457.875V68H455.345V66.196C454.92 66.768 454.341 67.2447 453.607 67.626C452.874 68.0073 452.038 68.198 451.099 68.198C450.058 68.198 449.105 67.934 448.239 67.406C447.374 66.8633 446.685 66.1153 446.171 65.162C445.673 64.194 445.423 63.1013 445.423 61.884ZM455.345 61.928C455.345 61.092 455.169 60.366 454.817 59.75C454.48 59.134 454.033 58.6647 453.475 58.342C452.918 58.0193 452.317 57.858 451.671 57.858C451.026 57.858 450.425 58.0193 449.867 58.342C449.31 58.65 448.855 59.112 448.503 59.728C448.166 60.3293 447.997 61.048 447.997 61.884C447.997 62.72 448.166 63.4533 448.503 64.084C448.855 64.7147 449.31 65.1987 449.867 65.536C450.439 65.8587 451.041 66.02 451.671 66.02C452.317 66.02 452.918 65.8587 453.475 65.536C454.033 65.2133 454.48 64.744 454.817 64.128C455.169 63.4973 455.345 62.764 455.345 61.928ZM467.286 55.68C468.239 55.68 469.09 55.878 469.838 56.274C470.6 56.67 471.194 57.2567 471.62 58.034C472.045 58.8113 472.258 59.75 472.258 60.85V68H469.772V61.224C469.772 60.1387 469.5 59.31 468.958 58.738C468.415 58.1513 467.674 57.858 466.736 57.858C465.797 57.858 465.049 58.1513 464.492 58.738C463.949 59.31 463.678 60.1387 463.678 61.224V68H461.17V55.878H463.678V57.264C464.088 56.7653 464.609 56.3767 465.24 56.098C465.885 55.8193 466.567 55.68 467.286 55.68ZM474.621 61.928C474.621 60.6813 474.87 59.5887 475.369 58.65C475.882 57.6967 476.586 56.9633 477.481 56.45C478.375 55.9367 479.402 55.68 480.561 55.68C482.027 55.68 483.237 56.032 484.191 56.736C485.159 57.4253 485.811 58.4153 486.149 59.706H483.443C483.223 59.1047 482.871 58.6353 482.387 58.298C481.903 57.9607 481.294 57.792 480.561 57.792C479.534 57.792 478.713 58.1587 478.097 58.892C477.495 59.6107 477.195 60.6227 477.195 61.928C477.195 63.2333 477.495 64.2527 478.097 64.986C478.713 65.7193 479.534 66.086 480.561 66.086C482.013 66.086 482.973 65.448 483.443 64.172H486.149C485.797 65.404 485.137 66.3867 484.169 67.12C483.201 67.8387 481.998 68.198 480.561 68.198C479.402 68.198 478.375 67.9413 477.481 67.428C476.586 66.9 475.882 66.1667 475.369 65.228C474.87 64.2747 474.621 63.1747 474.621 61.928ZM489.924 54.272C489.469 54.272 489.088 54.118 488.78 53.81C488.472 53.502 488.318 53.1207 488.318 52.666C488.318 52.2113 488.472 51.83 488.78 51.522C489.088 51.214 489.469 51.06 489.924 51.06C490.364 51.06 490.738 51.214 491.046 51.522C491.354 51.83 491.508 52.2113 491.508 52.666C491.508 53.1207 491.354 53.502 491.046 53.81C490.738 54.118 490.364 54.272 489.924 54.272ZM491.156 55.878V68H488.648V55.878H491.156ZM500.565 55.68C501.518 55.68 502.369 55.878 503.117 56.274C503.879 56.67 504.473 57.2567 504.899 58.034C505.324 58.8113 505.537 59.75 505.537 60.85V68H503.051V61.224C503.051 60.1387 502.779 59.31 502.237 58.738C501.694 58.1513 500.953 57.858 500.015 57.858C499.076 57.858 498.328 58.1513 497.771 58.738C497.228 59.31 496.957 60.1387 496.957 61.224V68H494.449V55.878H496.957V57.264C497.367 56.7653 497.888 56.3767 498.519 56.098C499.164 55.8193 499.846 55.68 500.565 55.68ZM513.62 55.68C514.559 55.68 515.387 55.8707 516.106 56.252C516.839 56.6187 517.411 57.0807 517.822 57.638V55.878H520.352V68.198C520.352 69.3127 520.117 70.3027 519.648 71.168C519.179 72.048 518.497 72.7373 517.602 73.236C516.722 73.7347 515.666 73.984 514.434 73.984C512.791 73.984 511.427 73.5953 510.342 72.818C509.257 72.0553 508.641 71.014 508.494 69.694H510.98C511.171 70.3247 511.574 70.8307 512.19 71.212C512.821 71.608 513.569 71.806 514.434 71.806C515.446 71.806 516.26 71.498 516.876 70.882C517.507 70.266 517.822 69.3713 517.822 68.198V66.174C517.397 66.746 516.817 67.23 516.084 67.626C515.365 68.0073 514.544 68.198 513.62 68.198C512.564 68.198 511.596 67.934 510.716 67.406C509.851 66.8633 509.161 66.1153 508.648 65.162C508.149 64.194 507.9 63.1013 507.9 61.884C507.9 60.6667 508.149 59.5887 508.648 58.65C509.161 57.7113 509.851 56.9853 510.716 56.472C511.596 55.944 512.564 55.68 513.62 55.68ZM517.822 61.928C517.822 61.092 517.646 60.366 517.294 59.75C516.957 59.134 516.509 58.6647 515.952 58.342C515.395 58.0193 514.793 57.858 514.148 57.858C513.503 57.858 512.901 58.0193 512.344 58.342C511.787 58.65 511.332 59.112 510.98 59.728C510.643 60.3293 510.474 61.048 510.474 61.884C510.474 62.72 510.643 63.4533 510.98 64.084C511.332 64.7147 511.787 65.1987 512.344 65.536C512.916 65.8587 513.517 66.02 514.148 66.02C514.793 66.02 515.395 65.8587 515.952 65.536C516.509 65.2133 516.957 64.744 517.294 64.128C517.646 63.4973 517.822 62.764 517.822 61.928ZM532.287 57.924V64.634C532.287 65.0887 532.39 65.4187 532.595 65.624C532.815 65.8147 533.182 65.91 533.695 65.91H535.235V68H533.255C532.126 68 531.26 67.736 530.659 67.208C530.058 66.68 529.757 65.822 529.757 64.634V57.924H528.327V55.878H529.757V52.864H532.287V55.878H535.235V57.924H532.287ZM542.804 68.198C541.66 68.198 540.626 67.9413 539.702 67.428C538.778 66.9 538.052 66.1667 537.524 65.228C536.996 64.2747 536.732 63.1747 536.732 61.928C536.732 60.696 537.004 59.6033 537.546 58.65C538.089 57.6967 538.83 56.9633 539.768 56.45C540.707 55.9367 541.756 55.68 542.914 55.68C544.073 55.68 545.122 55.9367 546.06 56.45C546.999 56.9633 547.74 57.6967 548.282 58.65C548.825 59.6033 549.096 60.696 549.096 61.928C549.096 63.16 548.818 64.2527 548.26 65.206C547.703 66.1593 546.94 66.9 545.972 67.428C545.019 67.9413 543.963 68.198 542.804 68.198ZM542.804 66.02C543.45 66.02 544.051 65.866 544.608 65.558C545.18 65.25 545.642 64.788 545.994 64.172C546.346 63.556 546.522 62.808 546.522 61.928C546.522 61.048 546.354 60.3073 546.016 59.706C545.679 59.09 545.232 58.628 544.674 58.32C544.117 58.012 543.516 57.858 542.87 57.858C542.225 57.858 541.624 58.012 541.066 58.32C540.524 58.628 540.091 59.09 539.768 59.706C539.446 60.3073 539.284 61.048 539.284 61.928C539.284 63.2333 539.614 64.2453 540.274 64.964C540.949 65.668 541.792 66.02 542.804 66.02ZM573.395 52.71V68H570.887V57.528L566.223 68H564.485L559.799 57.528V68H557.291V52.71H559.997L565.365 64.7L570.711 52.71H573.395ZM587.801 61.642C587.801 62.0967 587.772 62.5073 587.713 62.874H578.451C578.524 63.842 578.884 64.6193 579.529 65.206C580.174 65.7927 580.966 66.086 581.905 66.086C583.254 66.086 584.208 65.5213 584.765 64.392H587.471C587.104 65.5067 586.437 66.4233 585.469 67.142C584.516 67.846 583.328 68.198 581.905 68.198C580.746 68.198 579.705 67.9413 578.781 67.428C577.872 66.9 577.153 66.1667 576.625 65.228C576.112 64.2747 575.855 63.1747 575.855 61.928C575.855 60.6813 576.104 59.5887 576.603 58.65C577.116 57.6967 577.828 56.9633 578.737 56.45C579.661 55.9367 580.717 55.68 581.905 55.68C583.049 55.68 584.068 55.9293 584.963 56.428C585.858 56.9267 586.554 57.6307 587.053 58.54C587.552 59.4347 587.801 60.4687 587.801 61.642ZM585.183 60.85C585.168 59.926 584.838 59.1853 584.193 58.628C583.548 58.0707 582.748 57.792 581.795 57.792C580.93 57.792 580.189 58.0707 579.573 58.628C578.957 59.1707 578.59 59.9113 578.473 60.85H585.183ZM601.379 61.642C601.379 62.0967 601.35 62.5073 601.291 62.874H592.029C592.102 63.842 592.462 64.6193 593.107 65.206C593.752 65.7927 594.544 66.086 595.483 66.086C596.832 66.086 597.786 65.5213 598.343 64.392H601.049C600.682 65.5067 600.015 66.4233 599.047 67.142C598.094 67.846 596.906 68.198 595.483 68.198C594.324 68.198 593.283 67.9413 592.359 67.428C591.45 66.9 590.731 66.1667 590.203 65.228C589.69 64.2747 589.433 63.1747 589.433 61.928C589.433 60.6813 589.682 59.5887 590.181 58.65C590.694 57.6967 591.406 56.9633 592.315 56.45C593.239 55.9367 594.295 55.68 595.483 55.68C596.627 55.68 597.646 55.9293 598.541 56.428C599.436 56.9267 600.132 57.6307 600.631 58.54C601.13 59.4347 601.379 60.4687 601.379 61.642ZM598.761 60.85C598.746 59.926 598.416 59.1853 597.771 58.628C597.126 58.0707 596.326 57.792 595.373 57.792C594.508 57.792 593.767 58.0707 593.151 58.628C592.535 59.1707 592.168 59.9113 592.051 60.85H598.761ZM606.773 57.924V64.634C606.773 65.0887 606.876 65.4187 607.081 65.624C607.301 65.8147 607.668 65.91 608.181 65.91H609.721V68H607.741C606.612 68 605.747 67.736 605.145 67.208C604.544 66.68 604.243 65.822 604.243 64.634V57.924H602.813V55.878H604.243V52.864H606.773V55.878H609.721V57.924H606.773ZM629.958 52.71V68H627.45V61.312H620.256V68H617.748V52.71H620.256V59.266H627.45V52.71H629.958ZM634.535 54.272C634.081 54.272 633.699 54.118 633.391 53.81C633.083 53.502 632.929 53.1207 632.929 52.666C632.929 52.2113 633.083 51.83 633.391 51.522C633.699 51.214 634.081 51.06 634.535 51.06C634.975 51.06 635.349 51.214 635.657 51.522C635.965 51.83 636.119 52.2113 636.119 52.666C636.119 53.1207 635.965 53.502 635.657 53.81C635.349 54.118 634.975 54.272 634.535 54.272ZM635.767 55.878V68H633.259V55.878H635.767ZM643.944 55.68C644.883 55.68 645.711 55.8707 646.43 56.252C647.163 56.6187 647.735 57.0807 648.146 57.638V55.878H650.676V68.198C650.676 69.3127 650.441 70.3027 649.972 71.168C649.503 72.048 648.821 72.7373 647.926 73.236C647.046 73.7347 645.99 73.984 644.758 73.984C643.115 73.984 641.751 73.5953 640.666 72.818C639.581 72.0553 638.965 71.014 638.818 69.694H641.304C641.495 70.3247 641.898 70.8307 642.514 71.212C643.145 71.608 643.893 71.806 644.758 71.806C645.77 71.806 646.584 71.498 647.2 70.882C647.831 70.266 648.146 69.3713 648.146 68.198V66.174C647.721 66.746 647.141 67.23 646.408 67.626C645.689 68.0073 644.868 68.198 643.944 68.198C642.888 68.198 641.92 67.934 641.04 67.406C640.175 66.8633 639.485 66.1153 638.972 65.162C638.473 64.194 638.224 63.1013 638.224 61.884C638.224 60.6667 638.473 59.5887 638.972 58.65C639.485 57.7113 640.175 56.9853 641.04 56.472C641.92 55.944 642.888 55.68 643.944 55.68ZM648.146 61.928C648.146 61.092 647.97 60.366 647.618 59.75C647.281 59.134 646.833 58.6647 646.276 58.342C645.719 58.0193 645.117 57.858 644.472 57.858C643.827 57.858 643.225 58.0193 642.668 58.342C642.111 58.65 641.656 59.112 641.304 59.728C640.967 60.3293 640.798 61.048 640.798 61.884C640.798 62.72 640.967 63.4533 641.304 64.084C641.656 64.7147 642.111 65.1987 642.668 65.536C643.24 65.8587 643.841 66.02 644.472 66.02C645.117 66.02 645.719 65.8587 646.276 65.536C646.833 65.2133 647.281 64.744 647.618 64.128C647.97 63.4973 648.146 62.764 648.146 61.928ZM660.24 55.68C661.164 55.68 661.986 55.878 662.704 56.274C663.438 56.67 664.01 57.2567 664.42 58.034C664.846 58.8113 665.058 59.75 665.058 60.85V68H662.572V61.224C662.572 60.1387 662.301 59.31 661.758 58.738C661.216 58.1513 660.475 57.858 659.536 57.858C658.598 57.858 657.85 58.1513 657.292 58.738C656.75 59.31 656.478 60.1387 656.478 61.224V68H653.97V51.72H656.478V57.286C656.904 56.7727 657.439 56.3767 658.084 56.098C658.744 55.8193 659.463 55.68 660.24 55.68ZM678.966 52.71C680.594 52.71 682.017 53.0253 683.234 53.656C684.466 54.272 685.412 55.1667 686.072 56.34C686.747 57.4987 687.084 58.8553 687.084 60.41C687.084 61.9647 686.747 63.314 686.072 64.458C685.412 65.602 684.466 66.482 683.234 67.098C682.017 67.6993 680.594 68 678.966 68H673.972V52.71H678.966ZM678.966 65.954C680.756 65.954 682.127 65.47 683.08 64.502C684.034 63.534 684.51 62.17 684.51 60.41C684.51 58.6353 684.034 57.2493 683.08 56.252C682.127 55.2547 680.756 54.756 678.966 54.756H676.48V65.954H678.966ZM700.68 61.642C700.68 62.0967 700.651 62.5073 700.592 62.874H691.33C691.403 63.842 691.763 64.6193 692.408 65.206C693.053 65.7927 693.845 66.086 694.784 66.086C696.133 66.086 697.087 65.5213 697.644 64.392H700.35C699.983 65.5067 699.316 66.4233 698.348 67.142C697.395 67.846 696.207 68.198 694.784 68.198C693.625 68.198 692.584 67.9413 691.66 67.428C690.751 66.9 690.032 66.1667 689.504 65.228C688.991 64.2747 688.734 63.1747 688.734 61.928C688.734 60.6813 688.983 59.5887 689.482 58.65C689.995 57.6967 690.707 56.9633 691.616 56.45C692.54 55.9367 693.596 55.68 694.784 55.68C695.928 55.68 696.947 55.9293 697.842 56.428C698.737 56.9267 699.433 57.6307 699.932 58.54C700.431 59.4347 700.68 60.4687 700.68 61.642ZM698.062 60.85C698.047 59.926 697.717 59.1853 697.072 58.628C696.427 58.0707 695.627 57.792 694.674 57.792C693.809 57.792 693.068 58.0707 692.452 58.628C691.836 59.1707 691.469 59.9113 691.352 60.85H698.062ZM717.822 55.68C718.775 55.68 719.626 55.878 720.374 56.274C721.137 56.67 721.731 57.2567 722.156 58.034C722.596 58.8113 722.816 59.75 722.816 60.85V68H720.33V61.224C720.33 60.1387 720.059 59.31 719.516 58.738C718.973 58.1513 718.233 57.858 717.294 57.858C716.355 57.858 715.607 58.1513 715.05 58.738C714.507 59.31 714.236 60.1387 714.236 61.224V68H711.75V61.224C711.75 60.1387 711.479 59.31 710.936 58.738C710.393 58.1513 709.653 57.858 708.714 57.858C707.775 57.858 707.027 58.1513 706.47 58.738C705.927 59.31 705.656 60.1387 705.656 61.224V68H703.148V55.878H705.656V57.264C706.067 56.7653 706.587 56.3767 707.218 56.098C707.849 55.8193 708.523 55.68 709.242 55.68C710.21 55.68 711.075 55.8853 711.838 56.296C712.601 56.7067 713.187 57.3007 713.598 58.078C713.965 57.3447 714.537 56.7653 715.314 56.34C716.091 55.9 716.927 55.68 717.822 55.68ZM725.171 61.884C725.171 60.6667 725.421 59.5887 725.919 58.65C726.433 57.7113 727.122 56.9853 727.987 56.472C728.867 55.944 729.835 55.68 730.891 55.68C731.845 55.68 732.673 55.8707 733.377 56.252C734.096 56.6187 734.668 57.0807 735.093 57.638V55.878H737.623V68H735.093V66.196C734.668 66.768 734.089 67.2447 733.355 67.626C732.622 68.0073 731.786 68.198 730.847 68.198C729.806 68.198 728.853 67.934 727.987 67.406C727.122 66.8633 726.433 66.1153 725.919 65.162C725.421 64.194 725.171 63.1013 725.171 61.884ZM735.093 61.928C735.093 61.092 734.917 60.366 734.565 59.75C734.228 59.134 733.781 58.6647 733.223 58.342C732.666 58.0193 732.065 57.858 731.419 57.858C730.774 57.858 730.173 58.0193 729.615 58.342C729.058 58.65 728.603 59.112 728.251 59.728C727.914 60.3293 727.745 61.048 727.745 61.884C727.745 62.72 727.914 63.4533 728.251 64.084C728.603 64.7147 729.058 65.1987 729.615 65.536C730.187 65.8587 730.789 66.02 731.419 66.02C732.065 66.02 732.666 65.8587 733.223 65.536C733.781 65.2133 734.228 64.744 734.565 64.128C734.917 63.4973 735.093 62.764 735.093 61.928ZM747.034 55.68C747.987 55.68 748.838 55.878 749.586 56.274C750.348 56.67 750.942 57.2567 751.368 58.034C751.793 58.8113 752.006 59.75 752.006 60.85V68H749.52V61.224C749.52 60.1387 749.248 59.31 748.706 58.738C748.163 58.1513 747.422 57.858 746.484 57.858C745.545 57.858 744.797 58.1513 744.24 58.738C743.697 59.31 743.426 60.1387 743.426 61.224V68H740.918V55.878H743.426V57.264C743.836 56.7653 744.357 56.3767 744.988 56.098C745.633 55.8193 746.315 55.68 747.034 55.68ZM754.369 61.884C754.369 60.6667 754.618 59.5887 755.117 58.65C755.63 57.7113 756.319 56.9853 757.185 56.472C758.065 55.944 759.04 55.68 760.111 55.68C760.903 55.68 761.68 55.856 762.443 56.208C763.22 56.5453 763.836 57 764.291 57.572V51.72H766.821V68H764.291V66.174C763.88 66.7607 763.308 67.2447 762.575 67.626C761.856 68.0073 761.027 68.198 760.089 68.198C759.033 68.198 758.065 67.934 757.185 67.406C756.319 66.8633 755.63 66.1153 755.117 65.162C754.618 64.194 754.369 63.1013 754.369 61.884ZM764.291 61.928C764.291 61.092 764.115 60.366 763.763 59.75C763.425 59.134 762.978 58.6647 762.421 58.342C761.863 58.0193 761.262 57.858 760.617 57.858C759.971 57.858 759.37 58.0193 758.813 58.342C758.255 58.65 757.801 59.112 757.449 59.728C757.111 60.3293 756.943 61.048 756.943 61.884C756.943 62.72 757.111 63.4533 757.449 64.084C757.801 64.7147 758.255 65.1987 758.813 65.536C759.385 65.8587 759.986 66.02 760.617 66.02C761.262 66.02 761.863 65.8587 762.421 65.536C762.978 65.2133 763.425 64.744 763.763 64.128C764.115 63.4973 764.291 62.764 764.291 61.928Z" fill="#252641"/>
<path d="M320.86 118.02C320.86 116.66 321.167 115.44 321.78 114.36C322.393 113.267 323.227 112.413 324.28 111.8C325.347 111.187 326.527 110.88 327.82 110.88C329.34 110.88 330.667 111.247 331.8 111.98C332.933 112.713 333.76 113.753 334.28 115.1H332.1C331.713 114.26 331.153 113.613 330.42 113.16C329.7 112.707 328.833 112.48 327.82 112.48C326.847 112.48 325.973 112.707 325.2 113.16C324.427 113.613 323.82 114.26 323.38 115.1C322.94 115.927 322.72 116.9 322.72 118.02C322.72 119.127 322.94 120.1 323.38 120.94C323.82 121.767 324.427 122.407 325.2 122.86C325.973 123.313 326.847 123.54 327.82 123.54C328.833 123.54 329.7 123.32 330.42 122.88C331.153 122.427 331.713 121.78 332.1 120.94H334.28C333.76 122.273 332.933 123.307 331.8 124.04C330.667 124.76 329.34 125.12 327.82 125.12C326.527 125.12 325.347 124.82 324.28 124.22C323.227 123.607 322.393 122.76 321.78 121.68C321.167 120.6 320.86 119.38 320.86 118.02ZM339.209 110.2V125H337.389V110.2H339.209ZM342.031 119.48C342.031 118.36 342.258 117.38 342.711 116.54C343.164 115.687 343.784 115.027 344.571 114.56C345.371 114.093 346.258 113.86 347.231 113.86C348.191 113.86 349.024 114.067 349.731 114.48C350.438 114.893 350.964 115.413 351.311 116.04V114.04H353.151V125H351.311V122.96C350.951 123.6 350.411 124.133 349.691 124.56C348.984 124.973 348.158 125.18 347.211 125.18C346.238 125.18 345.358 124.94 344.571 124.46C343.784 123.98 343.164 123.307 342.711 122.44C342.258 121.573 342.031 120.587 342.031 119.48ZM351.311 119.5C351.311 118.673 351.144 117.953 350.811 117.34C350.478 116.727 350.024 116.26 349.451 115.94C348.891 115.607 348.271 115.44 347.591 115.44C346.911 115.44 346.291 115.6 345.731 115.92C345.171 116.24 344.724 116.707 344.391 117.32C344.058 117.933 343.891 118.653 343.891 119.48C343.891 120.32 344.058 121.053 344.391 121.68C344.724 122.293 345.171 122.767 345.731 123.1C346.291 123.42 346.911 123.58 347.591 123.58C348.271 123.58 348.891 123.42 349.451 123.1C350.024 122.767 350.478 122.293 350.811 121.68C351.144 121.053 351.311 120.327 351.311 119.5ZM360.507 125.18C359.667 125.18 358.913 125.04 358.247 124.76C357.58 124.467 357.053 124.067 356.667 123.56C356.28 123.04 356.067 122.447 356.027 121.78H357.907C357.96 122.327 358.213 122.773 358.667 123.12C359.133 123.467 359.74 123.64 360.487 123.64C361.18 123.64 361.727 123.487 362.127 123.18C362.527 122.873 362.727 122.487 362.727 122.02C362.727 121.54 362.513 121.187 362.087 120.96C361.66 120.72 361 120.487 360.107 120.26C359.293 120.047 358.627 119.833 358.107 119.62C357.6 119.393 357.16 119.067 356.787 118.64C356.427 118.2 356.247 117.627 356.247 116.92C356.247 116.36 356.413 115.847 356.747 115.38C357.08 114.913 357.553 114.547 358.167 114.28C358.78 114 359.48 113.86 360.267 113.86C361.48 113.86 362.46 114.167 363.207 114.78C363.953 115.393 364.353 116.233 364.407 117.3H362.587C362.547 116.727 362.313 116.267 361.887 115.92C361.473 115.573 360.913 115.4 360.207 115.4C359.553 115.4 359.033 115.54 358.647 115.82C358.26 116.1 358.067 116.467 358.067 116.92C358.067 117.28 358.18 117.58 358.407 117.82C358.647 118.047 358.94 118.233 359.287 118.38C359.647 118.513 360.14 118.667 360.767 118.84C361.553 119.053 362.193 119.267 362.687 119.48C363.18 119.68 363.6 119.987 363.947 120.4C364.307 120.813 364.493 121.353 364.507 122.02C364.507 122.62 364.34 123.16 364.007 123.64C363.673 124.12 363.2 124.5 362.587 124.78C361.987 125.047 361.293 125.18 360.507 125.18ZM371.356 125.18C370.516 125.18 369.763 125.04 369.096 124.76C368.429 124.467 367.903 124.067 367.516 123.56C367.129 123.04 366.916 122.447 366.876 121.78H368.756C368.809 122.327 369.063 122.773 369.516 123.12C369.983 123.467 370.589 123.64 371.336 123.64C372.029 123.64 372.576 123.487 372.976 123.18C373.376 122.873 373.576 122.487 373.576 122.02C373.576 121.54 373.363 121.187 372.936 120.96C372.509 120.72 371.849 120.487 370.956 120.26C370.143 120.047 369.476 119.833 368.956 119.62C368.449 119.393 368.009 119.067 367.636 118.64C367.276 118.2 367.096 117.627 367.096 116.92C367.096 116.36 367.263 115.847 367.596 115.38C367.929 114.913 368.403 114.547 369.016 114.28C369.629 114 370.329 113.86 371.116 113.86C372.329 113.86 373.309 114.167 374.056 114.78C374.803 115.393 375.203 116.233 375.256 117.3H373.436C373.396 116.727 373.163 116.267 372.736 115.92C372.323 115.573 371.763 115.4 371.056 115.4C370.403 115.4 369.883 115.54 369.496 115.82C369.109 116.1 368.916 116.467 368.916 116.92C368.916 117.28 369.029 117.58 369.256 117.82C369.496 118.047 369.789 118.233 370.136 118.38C370.496 118.513 370.989 118.667 371.616 118.84C372.403 119.053 373.043 119.267 373.536 119.48C374.029 119.68 374.449 119.987 374.796 120.4C375.156 120.813 375.343 121.353 375.356 122.02C375.356 122.62 375.189 123.16 374.856 123.64C374.523 124.12 374.049 124.5 373.436 124.78C372.836 125.047 372.143 125.18 371.356 125.18ZM392.637 111.06V112.54H388.837V125H387.017V112.54H383.197V111.06H392.637ZM405.278 119.1C405.278 119.447 405.258 119.813 405.218 120.2H396.458C396.524 121.28 396.891 122.127 397.558 122.74C398.238 123.34 399.058 123.64 400.018 123.64C400.804 123.64 401.458 123.46 401.978 123.1C402.511 122.727 402.884 122.233 403.098 121.62H405.058C404.764 122.673 404.178 123.533 403.298 124.2C402.418 124.853 401.324 125.18 400.018 125.18C398.978 125.18 398.044 124.947 397.218 124.48C396.404 124.013 395.764 123.353 395.298 122.5C394.831 121.633 394.598 120.633 394.598 119.5C394.598 118.367 394.824 117.373 395.278 116.52C395.731 115.667 396.364 115.013 397.178 114.56C398.004 114.093 398.951 113.86 400.018 113.86C401.058 113.86 401.978 114.087 402.778 114.54C403.578 114.993 404.191 115.62 404.618 116.42C405.058 117.207 405.278 118.1 405.278 119.1ZM403.398 118.72C403.398 118.027 403.244 117.433 402.938 116.94C402.631 116.433 402.211 116.053 401.678 115.8C401.158 115.533 400.578 115.4 399.938 115.4C399.018 115.4 398.231 115.693 397.578 116.28C396.938 116.867 396.571 117.68 396.478 118.72H403.398ZM407.4 119.5C407.4 118.367 407.627 117.38 408.08 116.54C408.533 115.687 409.16 115.027 409.96 114.56C410.773 114.093 411.7 113.86 412.74 113.86C414.087 113.86 415.193 114.187 416.06 114.84C416.94 115.493 417.52 116.4 417.8 117.56H415.84C415.653 116.893 415.287 116.367 414.74 115.98C414.207 115.593 413.54 115.4 412.74 115.4C411.7 115.4 410.86 115.76 410.22 116.48C409.58 117.187 409.26 118.193 409.26 119.5C409.26 120.82 409.58 121.84 410.22 122.56C410.86 123.28 411.7 123.64 412.74 123.64C413.54 123.64 414.207 123.453 414.74 123.08C415.273 122.707 415.64 122.173 415.84 121.48H417.8C417.507 122.6 416.92 123.5 416.04 124.18C415.16 124.847 414.06 125.18 412.74 125.18C411.7 125.18 410.773 124.947 409.96 124.48C409.16 124.013 408.533 123.353 408.08 122.5C407.627 121.647 407.4 120.647 407.4 119.5ZM426.068 113.84C426.895 113.84 427.642 114.02 428.308 114.38C428.975 114.727 429.495 115.253 429.868 115.96C430.255 116.667 430.448 117.527 430.448 118.54V125H428.648V118.8C428.648 117.707 428.375 116.873 427.828 116.3C427.282 115.713 426.535 115.42 425.588 115.42C424.628 115.42 423.862 115.72 423.288 116.32C422.728 116.92 422.448 117.793 422.448 118.94V125H420.628V110.2H422.448V115.6C422.808 115.04 423.302 114.607 423.928 114.3C424.568 113.993 425.282 113.84 426.068 113.84ZM439.161 113.84C440.495 113.84 441.575 114.247 442.401 115.06C443.228 115.86 443.641 117.02 443.641 118.54V125H441.841V118.8C441.841 117.707 441.568 116.873 441.021 116.3C440.475 115.713 439.728 115.42 438.781 115.42C437.821 115.42 437.055 115.72 436.481 116.32C435.921 116.92 435.641 117.793 435.641 118.94V125H433.821V114.04H435.641V115.6C436.001 115.04 436.488 114.607 437.101 114.3C437.728 113.993 438.415 113.84 439.161 113.84ZM451.794 125.18C450.768 125.18 449.834 124.947 448.994 124.48C448.168 124.013 447.514 123.353 447.034 122.5C446.568 121.633 446.334 120.633 446.334 119.5C446.334 118.38 446.574 117.393 447.054 116.54C447.548 115.673 448.214 115.013 449.054 114.56C449.894 114.093 450.834 113.86 451.874 113.86C452.914 113.86 453.854 114.093 454.694 114.56C455.534 115.013 456.194 115.667 456.674 116.52C457.168 117.373 457.414 118.367 457.414 119.5C457.414 120.633 457.161 121.633 456.654 122.5C456.161 123.353 455.488 124.013 454.634 124.48C453.781 124.947 452.834 125.18 451.794 125.18ZM451.794 123.58C452.448 123.58 453.061 123.427 453.634 123.12C454.208 122.813 454.668 122.353 455.014 121.74C455.374 121.127 455.554 120.38 455.554 119.5C455.554 118.62 455.381 117.873 455.034 117.26C454.688 116.647 454.234 116.193 453.674 115.9C453.114 115.593 452.508 115.44 451.854 115.44C451.188 115.44 450.574 115.593 450.014 115.9C449.468 116.193 449.028 116.647 448.694 117.26C448.361 117.873 448.194 118.62 448.194 119.5C448.194 120.393 448.354 121.147 448.674 121.76C449.008 122.373 449.448 122.833 449.994 123.14C450.541 123.433 451.141 123.58 451.794 123.58ZM462.027 110.2V125H460.207V110.2H462.027ZM470.309 125.18C469.282 125.18 468.349 124.947 467.509 124.48C466.682 124.013 466.029 123.353 465.549 122.5C465.082 121.633 464.849 120.633 464.849 119.5C464.849 118.38 465.089 117.393 465.569 116.54C466.062 115.673 466.729 115.013 467.569 114.56C468.409 114.093 469.349 113.86 470.389 113.86C471.429 113.86 472.369 114.093 473.209 114.56C474.049 115.013 474.709 115.667 475.189 116.52C475.682 117.373 475.929 118.367 475.929 119.5C475.929 120.633 475.676 121.633 475.169 122.5C474.676 123.353 474.002 124.013 473.149 124.48C472.296 124.947 471.349 125.18 470.309 125.18ZM470.309 123.58C470.962 123.58 471.576 123.427 472.149 123.12C472.722 122.813 473.182 122.353 473.529 121.74C473.889 121.127 474.069 120.38 474.069 119.5C474.069 118.62 473.896 117.873 473.549 117.26C473.202 116.647 472.749 116.193 472.189 115.9C471.629 115.593 471.022 115.44 470.369 115.44C469.702 115.44 469.089 115.593 468.529 115.9C467.982 116.193 467.542 116.647 467.209 117.26C466.876 117.873 466.709 118.62 466.709 119.5C466.709 120.393 466.869 121.147 467.189 121.76C467.522 122.373 467.962 122.833 468.509 123.14C469.056 123.433 469.656 123.58 470.309 123.58ZM483.242 113.86C484.189 113.86 485.015 114.067 485.722 114.48C486.442 114.893 486.975 115.413 487.322 116.04V114.04H489.162V125.24C489.162 126.24 488.949 127.127 488.522 127.9C488.095 128.687 487.482 129.3 486.682 129.74C485.895 130.18 484.975 130.4 483.922 130.4C482.482 130.4 481.282 130.06 480.322 129.38C479.362 128.7 478.795 127.773 478.622 126.6H480.422C480.622 127.267 481.035 127.8 481.662 128.2C482.289 128.613 483.042 128.82 483.922 128.82C484.922 128.82 485.735 128.507 486.362 127.88C487.002 127.253 487.322 126.373 487.322 125.24V122.94C486.962 123.58 486.429 124.113 485.722 124.54C485.015 124.967 484.189 125.18 483.242 125.18C482.269 125.18 481.382 124.94 480.582 124.46C479.795 123.98 479.175 123.307 478.722 122.44C478.269 121.573 478.042 120.587 478.042 119.48C478.042 118.36 478.269 117.38 478.722 116.54C479.175 115.687 479.795 115.027 480.582 114.56C481.382 114.093 482.269 113.86 483.242 113.86ZM487.322 119.5C487.322 118.673 487.155 117.953 486.822 117.34C486.489 116.727 486.035 116.26 485.462 115.94C484.902 115.607 484.282 115.44 483.602 115.44C482.922 115.44 482.302 115.6 481.742 115.92C481.182 116.24 480.735 116.707 480.402 117.32C480.069 117.933 479.902 118.653 479.902 119.48C479.902 120.32 480.069 121.053 480.402 121.68C480.735 122.293 481.182 122.767 481.742 123.1C482.302 123.42 482.922 123.58 483.602 123.58C484.282 123.58 484.902 123.42 485.462 123.1C486.035 122.767 486.489 122.293 486.822 121.68C487.155 121.053 487.322 120.327 487.322 119.5ZM493.578 112.26C493.231 112.26 492.938 112.14 492.698 111.9C492.458 111.66 492.338 111.367 492.338 111.02C492.338 110.673 492.458 110.38 492.698 110.14C492.938 109.9 493.231 109.78 493.578 109.78C493.911 109.78 494.191 109.9 494.418 110.14C494.658 110.38 494.778 110.673 494.778 111.02C494.778 111.367 494.658 111.66 494.418 111.9C494.191 112.14 493.911 112.26 493.578 112.26ZM494.458 114.04V125H492.638V114.04H494.458ZM507.96 119.1C507.96 119.447 507.94 119.813 507.9 120.2H499.14C499.206 121.28 499.573 122.127 500.24 122.74C500.92 123.34 501.74 123.64 502.7 123.64C503.486 123.64 504.14 123.46 504.66 123.1C505.193 122.727 505.566 122.233 505.78 121.62H507.74C507.446 122.673 506.86 123.533 505.98 124.2C505.1 124.853 504.006 125.18 502.7 125.18C501.66 125.18 500.726 124.947 499.9 124.48C499.086 124.013 498.446 123.353 497.98 122.5C497.513 121.633 497.28 120.633 497.28 119.5C497.28 118.367 497.506 117.373 497.96 116.52C498.413 115.667 499.046 115.013 499.86 114.56C500.686 114.093 501.633 113.86 502.7 113.86C503.74 113.86 504.66 114.087 505.46 114.54C506.26 114.993 506.873 115.62 507.3 116.42C507.74 117.207 507.96 118.1 507.96 119.1ZM506.08 118.72C506.08 118.027 505.926 117.433 505.62 116.94C505.313 116.433 504.893 116.053 504.36 115.8C503.84 115.533 503.26 115.4 502.62 115.4C501.7 115.4 500.913 115.693 500.26 116.28C499.62 116.867 499.253 117.68 499.16 118.72H506.08ZM514.642 125.18C513.802 125.18 513.049 125.04 512.382 124.76C511.715 124.467 511.189 124.067 510.802 123.56C510.415 123.04 510.202 122.447 510.162 121.78H512.042C512.095 122.327 512.349 122.773 512.802 123.12C513.269 123.467 513.875 123.64 514.622 123.64C515.315 123.64 515.862 123.487 516.262 123.18C516.662 122.873 516.862 122.487 516.862 122.02C516.862 121.54 516.649 121.187 516.222 120.96C515.795 120.72 515.135 120.487 514.242 120.26C513.429 120.047 512.762 119.833 512.242 119.62C511.735 119.393 511.295 119.067 510.922 118.64C510.562 118.2 510.382 117.627 510.382 116.92C510.382 116.36 510.549 115.847 510.882 115.38C511.215 114.913 511.689 114.547 512.302 114.28C512.915 114 513.615 113.86 514.402 113.86C515.615 113.86 516.595 114.167 517.342 114.78C518.089 115.393 518.489 116.233 518.542 117.3H516.722C516.682 116.727 516.449 116.267 516.022 115.92C515.609 115.573 515.049 115.4 514.342 115.4C513.689 115.4 513.169 115.54 512.782 115.82C512.395 116.1 512.202 116.467 512.202 116.92C512.202 117.28 512.315 117.58 512.542 117.82C512.782 118.047 513.075 118.233 513.422 118.38C513.782 118.513 514.275 118.667 514.902 118.84C515.689 119.053 516.329 119.267 516.822 119.48C517.315 119.68 517.735 119.987 518.082 120.4C518.442 120.813 518.629 121.353 518.642 122.02C518.642 122.62 518.475 123.16 518.142 123.64C517.809 124.12 517.335 124.5 516.722 124.78C516.122 125.047 515.429 125.18 514.642 125.18ZM529.163 111.06V125H527.343V111.06H529.163ZM538.005 113.84C539.338 113.84 540.418 114.247 541.245 115.06C542.072 115.86 542.485 117.02 542.485 118.54V125H540.685V118.8C540.685 117.707 540.412 116.873 539.865 116.3C539.318 115.713 538.572 115.42 537.625 115.42C536.665 115.42 535.898 115.72 535.325 116.32C534.765 116.92 534.485 117.793 534.485 118.94V125H532.665V114.04H534.485V115.6C534.845 115.04 535.332 114.607 535.945 114.3C536.572 113.993 537.258 113.84 538.005 113.84ZM545.178 119.5C545.178 118.367 545.405 117.38 545.858 116.54C546.311 115.687 546.938 115.027 547.738 114.56C548.551 114.093 549.478 113.86 550.518 113.86C551.865 113.86 552.971 114.187 553.838 114.84C554.718 115.493 555.298 116.4 555.578 117.56H553.618C553.431 116.893 553.065 116.367 552.518 115.98C551.985 115.593 551.318 115.4 550.518 115.4C549.478 115.4 548.638 115.76 547.998 116.48C547.358 117.187 547.038 118.193 547.038 119.5C547.038 120.82 547.358 121.84 547.998 122.56C548.638 123.28 549.478 123.64 550.518 123.64C551.318 123.64 551.985 123.453 552.518 123.08C553.051 122.707 553.418 122.173 553.618 121.48H555.578C555.285 122.6 554.698 123.5 553.818 124.18C552.938 124.847 551.838 125.18 550.518 125.18C549.478 125.18 548.551 124.947 547.738 124.48C546.938 124.013 546.311 123.353 545.858 122.5C545.405 121.647 545.178 120.647 545.178 119.5ZM558.986 125.12C558.64 125.12 558.346 125 558.106 124.76C557.866 124.52 557.746 124.227 557.746 123.88C557.746 123.533 557.866 123.24 558.106 123C558.346 122.76 558.64 122.64 558.986 122.64C559.32 122.64 559.6 122.76 559.826 123C560.066 123.24 560.186 123.533 560.186 123.88C560.186 124.227 560.066 124.52 559.826 124.76C559.6 125 559.32 125.12 558.986 125.12ZM564.886 122.48L562.646 127.86H561.426L562.886 122.48H564.886ZM575.323 115.54V122C575.323 122.533 575.436 122.913 575.663 123.14C575.889 123.353 576.283 123.46 576.842 123.46H578.183V125H576.543C575.529 125 574.769 124.767 574.263 124.3C573.756 123.833 573.503 123.067 573.503 122V115.54H572.083V114.04H573.503V111.28H575.323V114.04H578.183V115.54H575.323ZM586.228 113.84C587.054 113.84 587.801 114.02 588.468 114.38C589.134 114.727 589.654 115.253 590.028 115.96C590.414 116.667 590.608 117.527 590.608 118.54V125H588.808V118.8C588.808 117.707 588.534 116.873 587.988 116.3C587.441 115.713 586.694 115.42 585.748 115.42C584.788 115.42 584.021 115.72 583.448 116.32C582.888 116.92 582.608 117.793 582.608 118.94V125H580.788V110.2H582.608V115.6C582.968 115.04 583.461 114.607 584.088 114.3C584.728 113.993 585.441 113.84 586.228 113.84ZM603.981 119.1C603.981 119.447 603.961 119.813 603.921 120.2H595.161C595.227 121.28 595.594 122.127 596.261 122.74C596.941 123.34 597.761 123.64 598.721 123.64C599.507 123.64 600.161 123.46 600.681 123.1C601.214 122.727 601.587 122.233 601.801 121.62H603.761C603.467 122.673 602.881 123.533 602.001 124.2C601.121 124.853 600.027 125.18 598.721 125.18C597.681 125.18 596.747 124.947 595.921 124.48C595.107 124.013 594.467 123.353 594.001 122.5C593.534 121.633 593.301 120.633 593.301 119.5C593.301 118.367 593.527 117.373 593.981 116.52C594.434 115.667 595.067 115.013 595.881 114.56C596.707 114.093 597.654 113.86 598.721 113.86C599.761 113.86 600.681 114.087 601.481 114.54C602.281 114.993 602.894 115.62 603.321 116.42C603.761 117.207 603.981 118.1 603.981 119.1ZM602.101 118.72C602.101 118.027 601.947 117.433 601.641 116.94C601.334 116.433 600.914 116.053 600.381 115.8C599.861 115.533 599.281 115.4 598.641 115.4C597.721 115.4 596.934 115.693 596.281 116.28C595.641 116.867 595.274 117.68 595.181 118.72H602.101ZM611.835 119.5C611.835 118.367 612.062 117.38 612.515 116.54C612.968 115.687 613.595 115.027 614.395 114.56C615.208 114.093 616.135 113.86 617.175 113.86C618.522 113.86 619.628 114.187 620.495 114.84C621.375 115.493 621.955 116.4 622.235 117.56H620.275C620.088 116.893 619.722 116.367 619.175 115.98C618.642 115.593 617.975 115.4 617.175 115.4C616.135 115.4 615.295 115.76 614.655 116.48C614.015 117.187 613.695 118.193 613.695 119.5C613.695 120.82 614.015 121.84 614.655 122.56C615.295 123.28 616.135 123.64 617.175 123.64C617.975 123.64 618.642 123.453 619.175 123.08C619.708 122.707 620.075 122.173 620.275 121.48H622.235C621.942 122.6 621.355 123.5 620.475 124.18C619.595 124.847 618.495 125.18 617.175 125.18C616.135 125.18 615.208 124.947 614.395 124.48C613.595 124.013 612.968 123.353 612.515 122.5C612.062 121.647 611.835 120.647 611.835 119.5ZM629.843 125.18C628.817 125.18 627.883 124.947 627.043 124.48C626.217 124.013 625.563 123.353 625.083 122.5C624.617 121.633 624.383 120.633 624.383 119.5C624.383 118.38 624.623 117.393 625.103 116.54C625.597 115.673 626.263 115.013 627.103 114.56C627.943 114.093 628.883 113.86 629.923 113.86C630.963 113.86 631.903 114.093 632.743 114.56C633.583 115.013 634.243 115.667 634.723 116.52C635.217 117.373 635.463 118.367 635.463 119.5C635.463 120.633 635.21 121.633 634.703 122.5C634.21 123.353 633.537 124.013 632.683 124.48C631.83 124.947 630.883 125.18 629.843 125.18ZM629.843 123.58C630.497 123.58 631.11 123.427 631.683 123.12C632.257 122.813 632.717 122.353 633.063 121.74C633.423 121.127 633.603 120.38 633.603 119.5C633.603 118.62 633.43 117.873 633.083 117.26C632.737 116.647 632.283 116.193 631.723 115.9C631.163 115.593 630.557 115.44 629.903 115.44C629.237 115.44 628.623 115.593 628.063 115.9C627.517 116.193 627.077 116.647 626.743 117.26C626.41 117.873 626.243 118.62 626.243 119.5C626.243 120.393 626.403 121.147 626.723 121.76C627.057 122.373 627.497 122.833 628.043 123.14C628.59 123.433 629.19 123.58 629.843 123.58ZM651.436 113.84C652.29 113.84 653.05 114.02 653.716 114.38C654.383 114.727 654.91 115.253 655.296 115.96C655.683 116.667 655.876 117.527 655.876 118.54V125H654.076V118.8C654.076 117.707 653.803 116.873 653.256 116.3C652.723 115.713 651.996 115.42 651.076 115.42C650.13 115.42 649.376 115.727 648.816 116.34C648.256 116.94 647.976 117.813 647.976 118.96V125H646.176V118.8C646.176 117.707 645.903 116.873 645.356 116.3C644.823 115.713 644.096 115.42 643.176 115.42C642.23 115.42 641.476 115.727 640.916 116.34C640.356 116.94 640.076 117.813 640.076 118.96V125H638.256V114.04H640.076V115.62C640.436 115.047 640.916 114.607 641.516 114.3C642.13 113.993 642.803 113.84 643.536 113.84C644.456 113.84 645.27 114.047 645.976 114.46C646.683 114.873 647.21 115.48 647.556 116.28C647.863 115.507 648.37 114.907 649.076 114.48C649.783 114.053 650.57 113.84 651.436 113.84ZM661.082 116.06C661.442 115.433 661.975 114.913 662.682 114.5C663.402 114.073 664.235 113.86 665.182 113.86C666.155 113.86 667.035 114.093 667.822 114.56C668.622 115.027 669.249 115.687 669.702 116.54C670.155 117.38 670.382 118.36 670.382 119.48C670.382 120.587 670.155 121.573 669.702 122.44C669.249 123.307 668.622 123.98 667.822 124.46C667.035 124.94 666.155 125.18 665.182 125.18C664.249 125.18 663.422 124.973 662.702 124.56C661.995 124.133 661.455 123.607 661.082 122.98V130.2H659.262V114.04H661.082V116.06ZM668.522 119.48C668.522 118.653 668.355 117.933 668.022 117.32C667.689 116.707 667.235 116.24 666.662 115.92C666.102 115.6 665.482 115.44 664.802 115.44C664.135 115.44 663.515 115.607 662.942 115.94C662.382 116.26 661.929 116.733 661.582 117.36C661.249 117.973 661.082 118.687 661.082 119.5C661.082 120.327 661.249 121.053 661.582 121.68C661.929 122.293 662.382 122.767 662.942 123.1C663.515 123.42 664.135 123.58 664.802 123.58C665.482 123.58 666.102 123.42 666.662 123.1C667.235 122.767 667.689 122.293 668.022 121.68C668.355 121.053 668.522 120.32 668.522 119.48ZM672.498 119.48C672.498 118.36 672.724 117.38 673.178 116.54C673.631 115.687 674.251 115.027 675.038 114.56C675.838 114.093 676.724 113.86 677.698 113.86C678.658 113.86 679.491 114.067 680.198 114.48C680.904 114.893 681.431 115.413 681.778 116.04V114.04H683.618V125H681.778V122.96C681.418 123.6 680.878 124.133 680.158 124.56C679.451 124.973 678.624 125.18 677.678 125.18C676.704 125.18 675.824 124.94 675.038 124.46C674.251 123.98 673.631 123.307 673.178 122.44C672.724 121.573 672.498 120.587 672.498 119.48ZM681.778 119.5C681.778 118.673 681.611 117.953 681.278 117.34C680.944 116.727 680.491 116.26 679.918 115.94C679.358 115.607 678.738 115.44 678.058 115.44C677.378 115.44 676.758 115.6 676.198 115.92C675.638 116.24 675.191 116.707 674.858 117.32C674.524 117.933 674.358 118.653 674.358 119.48C674.358 120.32 674.524 121.053 674.858 121.68C675.191 122.293 675.638 122.767 676.198 123.1C676.758 123.42 677.378 123.58 678.058 123.58C678.738 123.58 679.358 123.42 679.918 123.1C680.491 122.767 680.944 122.293 681.278 121.68C681.611 121.053 681.778 120.327 681.778 119.5ZM692.433 113.84C693.766 113.84 694.846 114.247 695.673 115.06C696.5 115.86 696.913 117.02 696.913 118.54V125H695.113V118.8C695.113 117.707 694.84 116.873 694.293 116.3C693.746 115.713 693 115.42 692.053 115.42C691.093 115.42 690.326 115.72 689.753 116.32C689.193 116.92 688.913 117.793 688.913 118.94V125H687.093V114.04H688.913V115.6C689.273 115.04 689.76 114.607 690.373 114.3C691 113.993 691.686 113.84 692.433 113.84ZM709.726 114.04L703.126 130.16H701.246L703.406 124.88L698.986 114.04H701.006L704.446 122.92L707.846 114.04H709.726ZM719.908 115.54V122C719.908 122.533 720.021 122.913 720.248 123.14C720.474 123.353 720.868 123.46 721.428 123.46H722.768V125H721.128C720.114 125 719.354 124.767 718.848 124.3C718.341 123.833 718.088 123.067 718.088 122V115.54H716.668V114.04H718.088V111.28H719.908V114.04H722.768V115.54H719.908ZM730.813 113.84C731.639 113.84 732.386 114.02 733.053 114.38C733.719 114.727 734.239 115.253 734.613 115.96C734.999 116.667 735.193 117.527 735.193 118.54V125H733.393V118.8C733.393 117.707 733.119 116.873 732.573 116.3C732.026 115.713 731.279 115.42 730.333 115.42C729.373 115.42 728.606 115.72 728.033 116.32C727.473 116.92 727.193 117.793 727.193 118.94V125H725.373V110.2H727.193V115.6C727.553 115.04 728.046 114.607 728.673 114.3C729.313 113.993 730.026 113.84 730.813 113.84ZM737.886 119.48C737.886 118.36 738.112 117.38 738.566 116.54C739.019 115.687 739.639 115.027 740.426 114.56C741.226 114.093 742.112 113.86 743.086 113.86C744.046 113.86 744.879 114.067 745.586 114.48C746.292 114.893 746.819 115.413 747.166 116.04V114.04H749.006V125H747.166V122.96C746.806 123.6 746.266 124.133 745.546 124.56C744.839 124.973 744.012 125.18 743.066 125.18C742.092 125.18 741.212 124.94 740.426 124.46C739.639 123.98 739.019 123.307 738.566 122.44C738.112 121.573 737.886 120.587 737.886 119.48ZM747.166 119.5C747.166 118.673 746.999 117.953 746.666 117.34C746.332 116.727 745.879 116.26 745.306 115.94C744.746 115.607 744.126 115.44 743.446 115.44C742.766 115.44 742.146 115.6 741.586 115.92C741.026 116.24 740.579 116.707 740.246 117.32C739.912 117.933 739.746 118.653 739.746 119.48C739.746 120.32 739.912 121.053 740.246 121.68C740.579 122.293 741.026 122.767 741.586 123.1C742.146 123.42 742.766 123.58 743.446 123.58C744.126 123.58 744.746 123.42 745.306 123.1C745.879 122.767 746.332 122.293 746.666 121.68C746.999 121.053 747.166 120.327 747.166 119.5ZM754.701 115.54V122C754.701 122.533 754.815 122.913 755.041 123.14C755.268 123.353 755.661 123.46 756.221 123.46H757.561V125H755.921C754.908 125 754.148 124.767 753.641 124.3C753.135 123.833 752.881 123.067 752.881 122V115.54H751.461V114.04H752.881V111.28H754.701V114.04H757.561V115.54H754.701ZM320.86 155.5C320.86 154.367 321.087 153.38 321.54 152.54C321.993 151.687 322.62 151.027 323.42 150.56C324.233 150.093 325.16 149.86 326.2 149.86C327.547 149.86 328.653 150.187 329.52 150.84C330.4 151.493 330.98 152.4 331.26 153.56H329.3C329.113 152.893 328.747 152.367 328.2 151.98C327.667 151.593 327 151.4 326.2 151.4C325.16 151.4 324.32 151.76 323.68 152.48C323.04 153.187 322.72 154.193 322.72 155.5C322.72 156.82 323.04 157.84 323.68 158.56C324.32 159.28 325.16 159.64 326.2 159.64C327 159.64 327.667 159.453 328.2 159.08C328.733 158.707 329.1 158.173 329.3 157.48H331.26C330.967 158.6 330.38 159.5 329.5 160.18C328.62 160.847 327.52 161.18 326.2 161.18C325.16 161.18 324.233 160.947 323.42 160.48C322.62 160.013 321.993 159.353 321.54 158.5C321.087 157.647 320.86 156.647 320.86 155.5ZM335.908 151.82C336.228 151.193 336.682 150.707 337.268 150.36C337.868 150.013 338.595 149.84 339.448 149.84V151.72H338.968C336.928 151.72 335.908 152.827 335.908 155.04V161H334.088V150.04H335.908V151.82ZM351.949 155.1C351.949 155.447 351.929 155.813 351.889 156.2H343.129C343.196 157.28 343.563 158.127 344.229 158.74C344.909 159.34 345.729 159.64 346.689 159.64C347.476 159.64 348.129 159.46 348.649 159.1C349.183 158.727 349.556 158.233 349.769 157.62H351.729C351.436 158.673 350.849 159.533 349.969 160.2C349.089 160.853 347.996 161.18 346.689 161.18C345.649 161.18 344.716 160.947 343.889 160.48C343.076 160.013 342.436 159.353 341.969 158.5C341.503 157.633 341.269 156.633 341.269 155.5C341.269 154.367 341.496 153.373 341.949 152.52C342.403 151.667 343.036 151.013 343.849 150.56C344.676 150.093 345.623 149.86 346.689 149.86C347.729 149.86 348.649 150.087 349.449 150.54C350.249 150.993 350.863 151.62 351.289 152.42C351.729 153.207 351.949 154.1 351.949 155.1ZM350.069 154.72C350.069 154.027 349.916 153.433 349.609 152.94C349.303 152.433 348.883 152.053 348.349 151.8C347.829 151.533 347.249 151.4 346.609 151.4C345.689 151.4 344.903 151.693 344.249 152.28C343.609 152.867 343.243 153.68 343.149 154.72H350.069ZM354.072 155.48C354.072 154.36 354.298 153.38 354.752 152.54C355.205 151.687 355.825 151.027 356.612 150.56C357.412 150.093 358.298 149.86 359.272 149.86C360.232 149.86 361.065 150.067 361.772 150.48C362.478 150.893 363.005 151.413 363.352 152.04V150.04H365.192V161H363.352V158.96C362.992 159.6 362.452 160.133 361.732 160.56C361.025 160.973 360.198 161.18 359.252 161.18C358.278 161.18 357.398 160.94 356.612 160.46C355.825 159.98 355.205 159.307 354.752 158.44C354.298 157.573 354.072 156.587 354.072 155.48ZM363.352 155.5C363.352 154.673 363.185 153.953 362.852 153.34C362.518 152.727 362.065 152.26 361.492 151.94C360.932 151.607 360.312 151.44 359.632 151.44C358.952 151.44 358.332 151.6 357.772 151.92C357.212 152.24 356.765 152.707 356.432 153.32C356.098 153.933 355.932 154.653 355.932 155.48C355.932 156.32 356.098 157.053 356.432 157.68C356.765 158.293 357.212 158.767 357.772 159.1C358.332 159.42 358.952 159.58 359.632 159.58C360.312 159.58 360.932 159.42 361.492 159.1C362.065 158.767 362.518 158.293 362.852 157.68C363.185 157.053 363.352 156.327 363.352 155.5ZM370.887 151.54V158C370.887 158.533 371.001 158.913 371.227 159.14C371.454 159.353 371.847 159.46 372.407 159.46H373.747V161H372.107C371.094 161 370.334 160.767 369.827 160.3C369.321 159.833 369.067 159.067 369.067 158V151.54H367.647V150.04H369.067V147.28H370.887V150.04H373.747V151.54H370.887ZM386.353 155.1C386.353 155.447 386.333 155.813 386.293 156.2H377.533C377.599 157.28 377.966 158.127 378.633 158.74C379.313 159.34 380.133 159.64 381.093 159.64C381.879 159.64 382.533 159.46 383.053 159.1C383.586 158.727 383.959 158.233 384.173 157.62H386.133C385.839 158.673 385.253 159.533 384.373 160.2C383.493 160.853 382.399 161.18 381.093 161.18C380.053 161.18 379.119 160.947 378.293 160.48C377.479 160.013 376.839 159.353 376.373 158.5C375.906 157.633 375.673 156.633 375.673 155.5C375.673 154.367 375.899 153.373 376.353 152.52C376.806 151.667 377.439 151.013 378.253 150.56C379.079 150.093 380.026 149.86 381.093 149.86C382.133 149.86 383.053 150.087 383.853 150.54C384.653 150.993 385.266 151.62 385.693 152.42C386.133 153.207 386.353 154.1 386.353 155.1ZM384.473 154.72C384.473 154.027 384.319 153.433 384.013 152.94C383.706 152.433 383.286 152.053 382.753 151.8C382.233 151.533 381.653 151.4 381.013 151.4C380.093 151.4 379.306 151.693 378.653 152.28C378.013 152.867 377.646 153.68 377.553 154.72H384.473ZM388.475 155.48C388.475 154.36 388.702 153.38 389.155 152.54C389.608 151.687 390.228 151.027 391.015 150.56C391.815 150.093 392.708 149.86 393.695 149.86C394.548 149.86 395.342 150.06 396.075 150.46C396.808 150.847 397.368 151.36 397.755 152V146.2H399.595V161H397.755V158.94C397.395 159.593 396.862 160.133 396.155 160.56C395.448 160.973 394.622 161.18 393.675 161.18C392.702 161.18 391.815 160.94 391.015 160.46C390.228 159.98 389.608 159.307 389.155 158.44C388.702 157.573 388.475 156.587 388.475 155.48ZM397.755 155.5C397.755 154.673 397.588 153.953 397.255 153.34C396.922 152.727 396.468 152.26 395.895 151.94C395.335 151.607 394.715 151.44 394.035 151.44C393.355 151.44 392.735 151.6 392.175 151.92C391.615 152.24 391.168 152.707 390.835 153.32C390.502 153.933 390.335 154.653 390.335 155.48C390.335 156.32 390.502 157.053 390.835 157.68C391.168 158.293 391.615 158.767 392.175 159.1C392.735 159.42 393.355 159.58 394.035 159.58C394.715 159.58 395.335 159.42 395.895 159.1C396.468 158.767 396.922 158.293 397.255 157.68C397.588 157.053 397.755 156.327 397.755 155.5ZM408.122 154.02C408.122 152.66 408.429 151.44 409.042 150.36C409.656 149.267 410.489 148.413 411.542 147.8C412.609 147.187 413.789 146.88 415.082 146.88C416.602 146.88 417.929 147.247 419.062 147.98C420.196 148.713 421.022 149.753 421.542 151.1H419.362C418.976 150.26 418.416 149.613 417.682 149.16C416.962 148.707 416.096 148.48 415.082 148.48C414.109 148.48 413.236 148.707 412.462 149.16C411.689 149.613 411.082 150.26 410.642 151.1C410.202 151.927 409.982 152.9 409.982 154.02C409.982 155.127 410.202 156.1 410.642 156.94C411.082 157.767 411.689 158.407 412.462 158.86C413.236 159.313 414.109 159.54 415.082 159.54C416.096 159.54 416.962 159.32 417.682 158.88C418.416 158.427 418.976 157.78 419.362 156.94H421.542C421.022 158.273 420.196 159.307 419.062 160.04C417.929 160.76 416.602 161.12 415.082 161.12C413.789 161.12 412.609 160.82 411.542 160.22C410.489 159.607 409.656 158.76 409.042 157.68C408.429 156.6 408.122 155.38 408.122 154.02ZM426.472 146.2V161H424.652V146.2H426.472ZM429.294 155.48C429.294 154.36 429.52 153.38 429.974 152.54C430.427 151.687 431.047 151.027 431.834 150.56C432.634 150.093 433.52 149.86 434.494 149.86C435.454 149.86 436.287 150.067 436.994 150.48C437.7 150.893 438.227 151.413 438.574 152.04V150.04H440.414V161H438.574V158.96C438.214 159.6 437.674 160.133 436.954 160.56C436.247 160.973 435.42 161.18 434.474 161.18C433.5 161.18 432.62 160.94 431.834 160.46C431.047 159.98 430.427 159.307 429.974 158.44C429.52 157.573 429.294 156.587 429.294 155.48ZM438.574 155.5C438.574 154.673 438.407 153.953 438.074 153.34C437.74 152.727 437.287 152.26 436.714 151.94C436.154 151.607 435.534 151.44 434.854 151.44C434.174 151.44 433.554 151.6 432.994 151.92C432.434 152.24 431.987 152.707 431.654 153.32C431.32 153.933 431.154 154.653 431.154 155.48C431.154 156.32 431.32 157.053 431.654 157.68C431.987 158.293 432.434 158.767 432.994 159.1C433.554 159.42 434.174 159.58 434.854 159.58C435.534 159.58 436.154 159.42 436.714 159.1C437.287 158.767 437.74 158.293 438.074 157.68C438.407 157.053 438.574 156.327 438.574 155.5ZM447.769 161.18C446.929 161.18 446.176 161.04 445.509 160.76C444.843 160.467 444.316 160.067 443.929 159.56C443.543 159.04 443.329 158.447 443.289 157.78H445.169C445.223 158.327 445.476 158.773 445.929 159.12C446.396 159.467 447.003 159.64 447.749 159.64C448.443 159.64 448.989 159.487 449.389 159.18C449.789 158.873 449.989 158.487 449.989 158.02C449.989 157.54 449.776 157.187 449.349 156.96C448.923 156.72 448.263 156.487 447.369 156.26C446.556 156.047 445.889 155.833 445.369 155.62C444.863 155.393 444.423 155.067 444.049 154.64C443.689 154.2 443.509 153.627 443.509 152.92C443.509 152.36 443.676 151.847 444.009 151.38C444.343 150.913 444.816 150.547 445.429 150.28C446.043 150 446.743 149.86 447.529 149.86C448.743 149.86 449.723 150.167 450.469 150.78C451.216 151.393 451.616 152.233 451.669 153.3H449.849C449.809 152.727 449.576 152.267 449.149 151.92C448.736 151.573 448.176 151.4 447.469 151.4C446.816 151.4 446.296 151.54 445.909 151.82C445.523 152.1 445.329 152.467 445.329 152.92C445.329 153.28 445.443 153.58 445.669 153.82C445.909 154.047 446.203 154.233 446.549 154.38C446.909 154.513 447.403 154.667 448.029 154.84C448.816 155.053 449.456 155.267 449.949 155.48C450.443 155.68 450.863 155.987 451.209 156.4C451.569 156.813 451.756 157.353 451.769 158.02C451.769 158.62 451.603 159.16 451.269 159.64C450.936 160.12 450.463 160.5 449.849 160.78C449.249 161.047 448.556 161.18 447.769 161.18ZM458.618 161.18C457.778 161.18 457.025 161.04 456.358 160.76C455.692 160.467 455.165 160.067 454.778 159.56C454.392 159.04 454.178 158.447 454.138 157.78H456.018C456.072 158.327 456.325 158.773 456.778 159.12C457.245 159.467 457.852 159.64 458.598 159.64C459.292 159.64 459.838 159.487 460.238 159.18C460.638 158.873 460.838 158.487 460.838 158.02C460.838 157.54 460.625 157.187 460.198 156.96C459.772 156.72 459.112 156.487 458.218 156.26C457.405 156.047 456.738 155.833 456.218 155.62C455.712 155.393 455.272 155.067 454.898 154.64C454.538 154.2 454.358 153.627 454.358 152.92C454.358 152.36 454.525 151.847 454.858 151.38C455.192 150.913 455.665 150.547 456.278 150.28C456.892 150 457.592 149.86 458.378 149.86C459.592 149.86 460.572 150.167 461.318 150.78C462.065 151.393 462.465 152.233 462.518 153.3H460.698C460.658 152.727 460.425 152.267 459.998 151.92C459.585 151.573 459.025 151.4 458.318 151.4C457.665 151.4 457.145 151.54 456.758 151.82C456.372 152.1 456.178 152.467 456.178 152.92C456.178 153.28 456.292 153.58 456.518 153.82C456.758 154.047 457.052 154.233 457.398 154.38C457.758 154.513 458.252 154.667 458.878 154.84C459.665 155.053 460.305 155.267 460.798 155.48C461.292 155.68 461.712 155.987 462.058 156.4C462.418 156.813 462.605 157.353 462.618 158.02C462.618 158.62 462.452 159.16 462.118 159.64C461.785 160.12 461.312 160.5 460.698 160.78C460.098 161.047 459.405 161.18 458.618 161.18ZM467.468 158.48L465.228 163.86H464.008L465.468 158.48H467.468ZM470.533 161.12C470.186 161.12 469.893 161 469.653 160.76C469.413 160.52 469.293 160.227 469.293 159.88C469.293 159.533 469.413 159.24 469.653 159C469.893 158.76 470.186 158.64 470.533 158.64C470.866 158.64 471.146 158.76 471.373 159C471.613 159.24 471.733 159.533 471.733 159.88C471.733 160.227 471.613 160.52 471.373 160.76C471.146 161 470.866 161.12 470.533 161.12ZM475.132 161.12C474.785 161.12 474.492 161 474.252 160.76C474.012 160.52 473.892 160.227 473.892 159.88C473.892 159.533 474.012 159.24 474.252 159C474.492 158.76 474.785 158.64 475.132 158.64C475.465 158.64 475.745 158.76 475.972 159C476.212 159.24 476.332 159.533 476.332 159.88C476.332 160.227 476.212 160.52 475.972 160.76C475.745 161 475.465 161.12 475.132 161.12ZM479.731 161.12C479.384 161.12 479.091 161 478.851 160.76C478.611 160.52 478.491 160.227 478.491 159.88C478.491 159.533 478.611 159.24 478.851 159C479.091 158.76 479.384 158.64 479.731 158.64C480.064 158.64 480.344 158.76 480.571 159C480.811 159.24 480.931 159.533 480.931 159.88C480.931 160.227 480.811 160.52 480.571 160.76C480.344 161 480.064 161.12 479.731 161.12Z" fill="#696984"/>
<rect x="106" y="146" width="154" height="34" rx="17" fill="#F77E23"/>
<path d="M127.774 161.126C127.774 162.17 127.414 163.04 126.694 163.736C125.986 164.42 124.9 164.762 123.436 164.762H121.024V170H119.386V157.454H123.436C124.852 157.454 125.926 157.796 126.658 158.48C127.402 159.164 127.774 160.046 127.774 161.126ZM123.436 163.412C124.348 163.412 125.02 163.214 125.452 162.818C125.884 162.422 126.1 161.858 126.1 161.126C126.1 159.578 125.212 158.804 123.436 158.804H121.024V163.412H123.436ZM136.776 170L133.788 164.87H131.808V170H130.17V157.454H134.22C135.168 157.454 135.966 157.616 136.614 157.94C137.274 158.264 137.766 158.702 138.09 159.254C138.414 159.806 138.576 160.436 138.576 161.144C138.576 162.008 138.324 162.77 137.82 163.43C137.328 164.09 136.584 164.528 135.588 164.744L138.738 170H136.776ZM131.808 163.556H134.22C135.108 163.556 135.774 163.34 136.218 162.908C136.662 162.464 136.884 161.876 136.884 161.144C136.884 160.4 136.662 159.824 136.218 159.416C135.786 159.008 135.12 158.804 134.22 158.804H131.808V163.556ZM143.119 158.786V162.98H147.691V164.33H143.119V168.65H148.231V170H141.481V157.436H148.231V158.786H143.119ZM155.048 170.126C154.22 170.126 153.476 169.982 152.816 169.694C152.168 169.394 151.658 168.986 151.286 168.47C150.914 167.942 150.722 167.336 150.71 166.652H152.456C152.516 167.24 152.756 167.738 153.176 168.146C153.608 168.542 154.232 168.74 155.048 168.74C155.828 168.74 156.44 168.548 156.884 168.164C157.34 167.768 157.568 167.264 157.568 166.652C157.568 166.172 157.436 165.782 157.172 165.482C156.908 165.182 156.578 164.954 156.182 164.798C155.786 164.642 155.252 164.474 154.58 164.294C153.752 164.078 153.086 163.862 152.582 163.646C152.09 163.43 151.664 163.094 151.304 162.638C150.956 162.17 150.782 161.546 150.782 160.766C150.782 160.082 150.956 159.476 151.304 158.948C151.652 158.42 152.138 158.012 152.762 157.724C153.398 157.436 154.124 157.292 154.94 157.292C156.116 157.292 157.076 157.586 157.82 158.174C158.576 158.762 159.002 159.542 159.098 160.514H157.298C157.238 160.034 156.986 159.614 156.542 159.254C156.098 158.882 155.51 158.696 154.778 158.696C154.094 158.696 153.536 158.876 153.104 159.236C152.672 159.584 152.456 160.076 152.456 160.712C152.456 161.168 152.582 161.54 152.834 161.828C153.098 162.116 153.416 162.338 153.788 162.494C154.172 162.638 154.706 162.806 155.39 162.998C156.218 163.226 156.884 163.454 157.388 163.682C157.892 163.898 158.324 164.24 158.684 164.708C159.044 165.164 159.224 165.788 159.224 166.58C159.224 167.192 159.062 167.768 158.738 168.308C158.414 168.848 157.934 169.286 157.298 169.622C156.662 169.958 155.912 170.126 155.048 170.126ZM165.972 170.126C165.144 170.126 164.4 169.982 163.74 169.694C163.092 169.394 162.582 168.986 162.21 168.47C161.838 167.942 161.646 167.336 161.634 166.652H163.38C163.44 167.24 163.68 167.738 164.1 168.146C164.532 168.542 165.156 168.74 165.972 168.74C166.752 168.74 167.364 168.548 167.808 168.164C168.264 167.768 168.492 167.264 168.492 166.652C168.492 166.172 168.36 165.782 168.096 165.482C167.832 165.182 167.502 164.954 167.106 164.798C166.71 164.642 166.176 164.474 165.504 164.294C164.676 164.078 164.01 163.862 163.506 163.646C163.014 163.43 162.588 163.094 162.228 162.638C161.88 162.17 161.706 161.546 161.706 160.766C161.706 160.082 161.88 159.476 162.228 158.948C162.576 158.42 163.062 158.012 163.686 157.724C164.322 157.436 165.048 157.292 165.864 157.292C167.04 157.292 168 157.586 168.744 158.174C169.5 158.762 169.926 159.542 170.022 160.514H168.222C168.162 160.034 167.91 159.614 167.466 159.254C167.022 158.882 166.434 158.696 165.702 158.696C165.018 158.696 164.46 158.876 164.028 159.236C163.596 159.584 163.38 160.076 163.38 160.712C163.38 161.168 163.506 161.54 163.758 161.828C164.022 162.116 164.34 162.338 164.712 162.494C165.096 162.638 165.63 162.806 166.314 162.998C167.142 163.226 167.808 163.454 168.312 163.682C168.816 163.898 169.248 164.24 169.608 164.708C169.968 165.164 170.148 165.788 170.148 166.58C170.148 167.192 169.986 167.768 169.662 168.308C169.338 168.848 168.858 169.286 168.222 169.622C167.586 169.958 166.836 170.126 165.972 170.126ZM184.683 170L181.695 164.87H179.715V170H178.077V157.454H182.127C183.075 157.454 183.873 157.616 184.521 157.94C185.181 158.264 185.673 158.702 185.997 159.254C186.321 159.806 186.483 160.436 186.483 161.144C186.483 162.008 186.231 162.77 185.727 163.43C185.235 164.09 184.491 164.528 183.495 164.744L186.645 170H184.683ZM179.715 163.556H182.127C183.015 163.556 183.681 163.34 184.125 162.908C184.569 162.464 184.791 161.876 184.791 161.144C184.791 160.4 184.569 159.824 184.125 159.416C183.693 159.008 183.027 158.804 182.127 158.804H179.715V163.556ZM191.026 158.786V162.98H195.598V164.33H191.026V168.65H196.138V170H189.388V157.436H196.138V158.786H191.026ZM200.615 168.668H205.007V170H198.977V157.454H200.615V168.668ZM208.744 158.786V162.98H213.316V164.33H208.744V168.65H213.856V170H207.106V157.436H213.856V158.786H208.744ZM224.111 167.21H218.639L217.631 170H215.903L220.439 157.526H222.329L226.847 170H225.119L224.111 167.21ZM223.643 165.878L221.375 159.542L219.107 165.878H223.643ZM233.162 170.126C232.334 170.126 231.59 169.982 230.93 169.694C230.282 169.394 229.772 168.986 229.4 168.47C229.028 167.942 228.836 167.336 228.824 166.652H230.57C230.63 167.24 230.87 167.738 231.29 168.146C231.722 168.542 232.346 168.74 233.162 168.74C233.942 168.74 234.554 168.548 234.998 168.164C235.454 167.768 235.682 167.264 235.682 166.652C235.682 166.172 235.55 165.782 235.286 165.482C235.022 165.182 234.692 164.954 234.296 164.798C233.9 164.642 233.366 164.474 232.694 164.294C231.866 164.078 231.2 163.862 230.696 163.646C230.204 163.43 229.778 163.094 229.418 162.638C229.07 162.17 228.896 161.546 228.896 160.766C228.896 160.082 229.07 159.476 229.418 158.948C229.766 158.42 230.252 158.012 230.876 157.724C231.512 157.436 232.238 157.292 233.054 157.292C234.23 157.292 235.19 157.586 235.934 158.174C236.69 158.762 237.116 159.542 237.212 160.514H235.412C235.352 160.034 235.1 159.614 234.656 159.254C234.212 158.882 233.624 158.696 232.892 158.696C232.208 158.696 231.65 158.876 231.218 159.236C230.786 159.584 230.57 160.076 230.57 160.712C230.57 161.168 230.696 161.54 230.948 161.828C231.212 162.116 231.53 162.338 231.902 162.494C232.286 162.638 232.82 162.806 233.504 162.998C234.332 163.226 234.998 163.454 235.502 163.682C236.006 163.898 236.438 164.24 236.798 164.708C237.158 165.164 237.338 165.788 237.338 166.58C237.338 167.192 237.176 167.768 236.852 168.308C236.528 168.848 236.048 169.286 235.412 169.622C234.776 169.958 234.026 170.126 233.162 170.126ZM241.746 158.786V162.98H246.318V164.33H241.746V168.65H246.858V170H240.108V157.436H246.858V158.786H241.746Z" fill="white"/>
</svg>
