<svg width="154" height="34" viewBox="0 0 154 34" fill="none" xmlns="http://www.w3.org/2000/svg">
<rect width="154" height="34" rx="17" fill="#F77E23"/>
<path d="M21.774 15.126C21.774 16.17 21.414 17.04 20.694 17.736C19.986 18.42 18.9 18.762 17.436 18.762H15.024V24H13.386V11.454H17.436C18.852 11.454 19.926 11.796 20.658 12.48C21.402 13.164 21.774 14.046 21.774 15.126ZM17.436 17.412C18.348 17.412 19.02 17.214 19.452 16.818C19.884 16.422 20.1 15.858 20.1 15.126C20.1 13.578 19.212 12.804 17.436 12.804H15.024V17.412H17.436ZM30.7758 24L27.7878 18.87H25.8078V24H24.1698V11.454H28.2198C29.1678 11.454 29.9658 11.616 30.6138 11.94C31.2738 12.264 31.7658 12.702 32.0898 13.254C32.4138 13.806 32.5758 14.436 32.5758 15.144C32.5758 16.008 32.3238 16.77 31.8198 17.43C31.3278 18.09 30.5838 18.528 29.5878 18.744L32.7378 24H30.7758ZM25.8078 17.556H28.2198C29.1078 17.556 29.7738 17.34 30.2178 16.908C30.6618 16.464 30.8838 15.876 30.8838 15.144C30.8838 14.4 30.6618 13.824 30.2178 13.416C29.7858 13.008 29.1198 12.804 28.2198 12.804H25.8078V17.556ZM37.119 12.786V16.98H41.691V18.33H37.119V22.65H42.231V24H35.481V11.436H42.231V12.786H37.119ZM49.0475 24.126C48.2195 24.126 47.4755 23.982 46.8155 23.694C46.1675 23.394 45.6575 22.986 45.2855 22.47C44.9135 21.942 44.7215 21.336 44.7095 20.652H46.4555C46.5155 21.24 46.7555 21.738 47.1755 22.146C47.6075 22.542 48.2315 22.74 49.0475 22.74C49.8275 22.74 50.4395 22.548 50.8835 22.164C51.3395 21.768 51.5675 21.264 51.5675 20.652C51.5675 20.172 51.4355 19.782 51.1715 19.482C50.9075 19.182 50.5775 18.954 50.1815 18.798C49.7855 18.642 49.2515 18.474 48.5795 18.294C47.7515 18.078 47.0855 17.862 46.5815 17.646C46.0895 17.43 45.6635 17.094 45.3035 16.638C44.9555 16.17 44.7815 15.546 44.7815 14.766C44.7815 14.082 44.9555 13.476 45.3035 12.948C45.6515 12.42 46.1375 12.012 46.7615 11.724C47.3975 11.436 48.1235 11.292 48.9395 11.292C50.1155 11.292 51.0755 11.586 51.8195 12.174C52.5755 12.762 53.0015 13.542 53.0975 14.514H51.2975C51.2375 14.034 50.9855 13.614 50.5415 13.254C50.0975 12.882 49.5095 12.696 48.7775 12.696C48.0935 12.696 47.5355 12.876 47.1035 13.236C46.6715 13.584 46.4555 14.076 46.4555 14.712C46.4555 15.168 46.5815 15.54 46.8335 15.828C47.0975 16.116 47.4155 16.338 47.7875 16.494C48.1715 16.638 48.7055 16.806 49.3895 16.998C50.2175 17.226 50.8835 17.454 51.3875 17.682C51.8915 17.898 52.3235 18.24 52.6835 18.708C53.0435 19.164 53.2235 19.788 53.2235 20.58C53.2235 21.192 53.0615 21.768 52.7375 22.308C52.4135 22.848 51.9335 23.286 51.2975 23.622C50.6615 23.958 49.9115 24.126 49.0475 24.126ZM59.972 24.126C59.144 24.126 58.4 23.982 57.74 23.694C57.092 23.394 56.582 22.986 56.21 22.47C55.838 21.942 55.646 21.336 55.634 20.652H57.38C57.44 21.24 57.68 21.738 58.1 22.146C58.532 22.542 59.156 22.74 59.972 22.74C60.752 22.74 61.364 22.548 61.808 22.164C62.264 21.768 62.492 21.264 62.492 20.652C62.492 20.172 62.36 19.782 62.096 19.482C61.832 19.182 61.502 18.954 61.106 18.798C60.71 18.642 60.176 18.474 59.504 18.294C58.676 18.078 58.01 17.862 57.506 17.646C57.014 17.43 56.588 17.094 56.228 16.638C55.88 16.17 55.706 15.546 55.706 14.766C55.706 14.082 55.88 13.476 56.228 12.948C56.576 12.42 57.062 12.012 57.686 11.724C58.322 11.436 59.048 11.292 59.864 11.292C61.04 11.292 62 11.586 62.744 12.174C63.5 12.762 63.926 13.542 64.022 14.514H62.222C62.162 14.034 61.91 13.614 61.466 13.254C61.022 12.882 60.434 12.696 59.702 12.696C59.018 12.696 58.46 12.876 58.028 13.236C57.596 13.584 57.38 14.076 57.38 14.712C57.38 15.168 57.506 15.54 57.758 15.828C58.022 16.116 58.34 16.338 58.712 16.494C59.096 16.638 59.63 16.806 60.314 16.998C61.142 17.226 61.808 17.454 62.312 17.682C62.816 17.898 63.248 18.24 63.608 18.708C63.968 19.164 64.148 19.788 64.148 20.58C64.148 21.192 63.986 21.768 63.662 22.308C63.338 22.848 62.858 23.286 62.222 23.622C61.586 23.958 60.836 24.126 59.972 24.126ZM78.6833 24L75.6953 18.87H73.7153V24H72.0772V11.454H76.1273C77.0753 11.454 77.8733 11.616 78.5213 11.94C79.1813 12.264 79.6733 12.702 79.9973 13.254C80.3213 13.806 80.4833 14.436 80.4833 15.144C80.4833 16.008 80.2313 16.77 79.7273 17.43C79.2353 18.09 78.4913 18.528 77.4953 18.744L80.6453 24H78.6833ZM73.7153 17.556H76.1273C77.0153 17.556 77.6813 17.34 78.1253 16.908C78.5693 16.464 78.7913 15.876 78.7913 15.144C78.7913 14.4 78.5693 13.824 78.1253 13.416C77.6933 13.008 77.0272 12.804 76.1273 12.804H73.7153V17.556ZM85.0264 12.786V16.98H89.5984V18.33H85.0264V22.65H90.1384V24H83.3884V11.436H90.1384V12.786H85.0264ZM94.6149 22.668H99.0069V24H92.9769V11.454H94.6149V22.668ZM102.744 12.786V16.98H107.316V18.33H102.744V22.65H107.856V24H101.106V11.436H107.856V12.786H102.744ZM118.111 21.21H112.639L111.631 24H109.903L114.439 11.526H116.329L120.847 24H119.119L118.111 21.21ZM117.643 19.878L115.375 13.542L113.107 19.878H117.643ZM127.162 24.126C126.334 24.126 125.59 23.982 124.93 23.694C124.282 23.394 123.772 22.986 123.4 22.47C123.028 21.942 122.836 21.336 122.824 20.652H124.57C124.63 21.24 124.87 21.738 125.29 22.146C125.722 22.542 126.346 22.74 127.162 22.74C127.942 22.74 128.554 22.548 128.998 22.164C129.454 21.768 129.682 21.264 129.682 20.652C129.682 20.172 129.55 19.782 129.286 19.482C129.022 19.182 128.692 18.954 128.296 18.798C127.9 18.642 127.366 18.474 126.694 18.294C125.866 18.078 125.2 17.862 124.696 17.646C124.204 17.43 123.778 17.094 123.418 16.638C123.07 16.17 122.896 15.546 122.896 14.766C122.896 14.082 123.07 13.476 123.418 12.948C123.766 12.42 124.252 12.012 124.876 11.724C125.512 11.436 126.238 11.292 127.054 11.292C128.23 11.292 129.19 11.586 129.934 12.174C130.69 12.762 131.116 13.542 131.212 14.514H129.412C129.352 14.034 129.1 13.614 128.656 13.254C128.212 12.882 127.624 12.696 126.892 12.696C126.208 12.696 125.65 12.876 125.218 13.236C124.786 13.584 124.57 14.076 124.57 14.712C124.57 15.168 124.696 15.54 124.948 15.828C125.212 16.116 125.53 16.338 125.902 16.494C126.286 16.638 126.82 16.806 127.504 16.998C128.332 17.226 128.998 17.454 129.502 17.682C130.006 17.898 130.438 18.24 130.798 18.708C131.158 19.164 131.338 19.788 131.338 20.58C131.338 21.192 131.176 21.768 130.852 22.308C130.528 22.848 130.048 23.286 129.412 23.622C128.776 23.958 128.026 24.126 127.162 24.126ZM135.746 12.786V16.98H140.318V18.33H135.746V22.65H140.858V24H134.108V11.436H140.858V12.786H135.746Z" fill="white"/>
</svg>
