<svg width="297" height="57" viewBox="0 0 297 57" fill="none" xmlns="http://www.w3.org/2000/svg">
<g clip-path="url(#clip0_1203_18)">
<path d="M27.4835 55.2075C42.6622 55.2075 54.9669 42.8489 54.9669 27.6038C54.9669 12.3586 42.6622 0 27.4835 0C12.3048 0 0 12.3586 0 27.6038C0 42.8489 12.3048 55.2075 27.4835 55.2075Z" fill="#F77D27"/>
<path fill-rule="evenodd" clip-rule="evenodd" d="M40.6243 33.4416C38.393 38.5008 33.3499 42.0302 27.4861 42.0302C22.1335 42.0302 17.4648 39.0892 14.9943 34.7285H21.2801V35.4408L24.4719 33.6599L21.2801 31.7008V32.7694H14.0717C13.4593 31.166 13.1238 29.4248 13.1238 27.6048C13.1238 19.6381 19.5541 13.1797 27.4861 13.1797C32.7655 13.1797 37.3796 16.0407 39.8754 20.3033H34.4013V19.2348L31.2098 21.1937L34.4013 22.9745V22.2622H40.8313C40.9309 22.5134 41.024 22.7682 41.1099 23.026C42.9123 24.9336 46.3456 25.2101 48.9089 24.0809C50.1538 22.0293 52.4025 20.6594 54.9696 20.6594C58.8868 20.6594 62.0622 23.8487 62.0622 27.783C62.0622 31.7172 58.8868 34.9065 54.9696 34.9065C52.586 34.9065 50.4769 33.7255 49.1911 31.9144C45.5721 30.9885 43.267 30.9885 40.6243 33.4416Z" fill="white"/>
<path d="M77.95 39.2C75.7223 39.2 73.7027 38.7191 71.8916 37.7573C70.1011 36.7744 68.6853 35.4256 67.6443 33.711C66.6243 31.9754 66.1141 30.0203 66.1141 27.8456C66.1141 25.671 66.6243 23.7262 67.6443 22.0116C68.6853 20.276 70.1011 18.9273 71.8916 17.9654C73.7027 16.9826 75.7327 16.4912 77.9812 16.4912C79.8758 16.4912 81.5829 16.8258 83.1027 17.4949C84.6433 18.164 85.9342 19.1259 86.9752 20.3806L83.7273 23.3918C82.2491 21.677 80.417 20.8197 78.2309 20.8197C76.8778 20.8197 75.6703 21.123 74.6085 21.7293C73.5467 22.3148 72.7139 23.1408 72.1101 24.2072C71.5272 25.2737 71.2357 26.4865 71.2357 27.8456C71.2357 29.2048 71.5272 30.4176 72.1101 31.4841C72.7139 32.5505 73.5467 33.3869 74.6085 33.9934C75.6703 34.5788 76.8778 34.8716 78.2309 34.8716C80.417 34.8716 82.2491 34.0038 83.7273 32.2682L86.9752 35.2793C85.9342 36.5548 84.6433 37.5272 83.1027 38.1964C81.5621 38.8654 79.8446 39.2 77.95 39.2Z" fill="#F77E23"/>
<path d="M97.151 39.0749C95.3813 39.0749 93.7886 38.7089 92.3729 37.9771C90.9779 37.2243 89.8851 36.1892 89.0938 34.8719C88.3026 33.5544 87.9071 32.0593 87.9071 30.3866C87.9071 28.7138 88.3026 27.2187 89.0938 25.9012C89.8851 24.584 90.9779 23.5593 92.3729 22.8274C93.7886 22.0746 95.3813 21.6982 97.151 21.6982C98.9207 21.6982 100.503 22.0746 101.898 22.8274C103.293 23.5593 104.386 24.584 105.177 25.9012C105.968 27.2187 106.363 28.7138 106.363 30.3866C106.363 32.0593 105.968 33.5544 105.177 34.8719C104.386 36.1892 103.293 37.2243 101.898 37.9771C100.503 38.7089 98.9207 39.0749 97.151 39.0749ZM97.151 35.06C98.4001 35.06 99.4203 34.6418 100.211 33.8054C101.023 32.9481 101.429 31.8085 101.429 30.3866C101.429 28.9646 101.023 27.8354 100.211 26.9991C99.4203 26.1418 98.4001 25.7131 97.151 25.7131C95.9017 25.7131 94.8713 26.1418 94.0593 26.9991C93.2472 27.8354 92.8413 28.9646 92.8413 30.3866C92.8413 31.8085 93.2472 32.9481 94.0593 33.8054C94.8713 34.6418 95.9017 35.06 97.151 35.06Z" fill="#F77E23"/>
<path d="M119.519 21.6982C121.601 21.6982 123.277 22.3256 124.547 23.5802C125.838 24.8348 126.484 26.6958 126.484 29.1633V38.8239H121.612V29.9161C121.612 28.5778 121.32 27.5846 120.738 26.9364C120.154 26.2672 119.311 25.9326 118.208 25.9326C116.98 25.9326 116.001 26.3194 115.272 27.0931C114.544 27.8459 114.179 28.9751 114.179 30.4806V38.8239H109.308V21.9492H113.961V23.9252C114.606 23.2143 115.408 22.6707 116.365 22.2943C117.323 21.897 118.374 21.6982 119.519 21.6982Z" fill="#F77E23"/>
<path d="M141.424 38.0076C140.945 38.3631 140.352 38.6349 139.644 38.823C138.957 38.9904 138.228 39.074 137.458 39.074C135.459 39.074 133.908 38.5618 132.805 37.5371C131.722 36.5125 131.181 35.0069 131.181 33.0204V26.0887H128.589V22.3248H131.181V18.2158H136.052V22.3248H140.237V26.0887H136.052V32.9577C136.052 33.6687 136.229 34.2228 136.583 34.6201C136.958 34.9964 137.478 35.1847 138.145 35.1847C138.915 35.1847 139.571 34.9755 140.112 34.5574L141.424 38.0076Z" fill="#F77E23"/>
<path d="M159.785 30.4493C159.785 30.512 159.754 30.9512 159.692 31.7667H146.982C147.211 32.8121 147.752 33.6382 148.605 34.2445C149.459 34.851 150.521 35.1542 151.791 35.1542C152.665 35.1542 153.435 35.0286 154.102 34.7778C154.789 34.506 155.424 34.0878 156.007 33.5231L158.599 36.3461C157.017 38.1653 154.706 39.0749 151.666 39.0749C149.771 39.0749 148.095 38.7089 146.638 37.9771C145.181 37.2243 144.056 36.1892 143.265 34.8719C142.474 33.5544 142.079 32.0593 142.079 30.3866C142.079 28.7347 142.464 27.25 143.234 25.9326C144.025 24.5944 145.097 23.5593 146.451 22.8274C147.825 22.0746 149.355 21.6982 151.041 21.6982C152.686 21.6982 154.175 22.0537 155.507 22.7647C156.839 23.4757 157.88 24.5002 158.63 25.8385C159.4 27.1558 159.785 28.6929 159.785 30.4493ZM151.073 25.3994C149.969 25.3994 149.043 25.7131 148.293 26.3403C147.544 26.9677 147.086 27.825 146.919 28.9124H155.195C155.028 27.8459 154.57 26.9991 153.821 26.3717C153.071 25.7236 152.155 25.3994 151.073 25.3994Z" fill="#F77E23"/>
<path d="M172.929 21.6982C175.01 21.6982 176.686 22.3256 177.956 23.5802C179.247 24.8348 179.893 26.6958 179.893 29.1633V38.8239H175.021V29.9161C175.021 28.5778 174.729 27.5846 174.146 26.9364C173.564 26.2672 172.72 25.9326 171.617 25.9326C170.389 25.9326 169.41 26.3194 168.681 27.0931C167.953 27.8459 167.588 28.9751 167.588 30.4806V38.8239H162.717V21.9492H167.37V23.9252C168.015 23.2143 168.817 22.6707 169.774 22.2943C170.732 21.897 171.783 21.6982 172.929 21.6982Z" fill="#F77E23"/>
<path d="M194.832 38.0076C194.353 38.3631 193.761 38.6349 193.052 38.823C192.365 38.9904 191.637 39.074 190.867 39.074C188.868 39.074 187.317 38.5618 186.213 37.5371C185.131 36.5125 184.59 35.0069 184.59 33.0204V26.0887H181.998V22.3248H184.59V18.2158H189.461V22.3248H193.646V26.0887H189.461V32.9577C189.461 33.6687 189.639 34.2228 189.993 34.6201C190.368 34.9964 190.888 35.1847 191.554 35.1847C192.324 35.1847 192.98 34.9755 193.521 34.5574L194.832 38.0076Z" fill="#F77E23"/>
<path d="M197.255 21.9488H202.126V38.8235H197.255V21.9488ZM199.692 19.5962C198.795 19.5962 198.067 19.335 197.505 18.8122C196.943 18.2894 196.661 17.6412 196.661 16.8675C196.661 16.0938 196.943 15.4456 197.505 14.9228C198.067 14.4001 198.795 14.1387 199.692 14.1387C200.587 14.1387 201.315 14.3896 201.877 14.8915C202.439 15.3933 202.72 16.0206 202.72 16.7734C202.72 17.5889 202.439 18.2685 201.877 18.8122C201.315 19.335 200.587 19.5962 199.692 19.5962Z" fill="#F77E23"/>
<path d="M214.33 39.0749C212.561 39.0749 210.968 38.7089 209.553 37.9771C208.157 37.2243 207.064 36.1892 206.273 34.8719C205.482 33.5544 205.087 32.0593 205.087 30.3866C205.087 28.7138 205.482 27.2187 206.273 25.9012C207.064 24.584 208.157 23.5593 209.553 22.8274C210.968 22.0746 212.561 21.6982 214.33 21.6982C216.101 21.6982 217.682 22.0746 219.078 22.8274C220.472 23.5593 221.566 24.584 222.357 25.9012C223.147 27.2187 223.543 28.7138 223.543 30.3866C223.543 32.0593 223.147 33.5544 222.357 34.8719C221.566 36.1892 220.472 37.2243 219.078 37.9771C217.682 38.7089 216.101 39.0749 214.33 39.0749ZM214.33 35.06C215.58 35.06 216.6 34.6418 217.391 33.8054C218.202 32.9481 218.609 31.8085 218.609 30.3866C218.609 28.9646 218.202 27.8354 217.391 26.9991C216.6 26.1418 215.58 25.7131 214.33 25.7131C213.081 25.7131 212.05 26.1418 211.239 26.9991C210.427 27.8354 210.021 28.9646 210.021 30.3866C210.021 31.8085 210.427 32.9481 211.239 33.8054C212.05 34.6418 213.081 35.06 214.33 35.06Z" fill="#F77E23"/>
<path d="M236.7 21.6982C238.78 21.6982 240.457 22.3256 241.728 23.5802C243.018 24.8348 243.663 26.6958 243.663 29.1633V38.8239H238.792V29.9161C238.792 28.5778 238.5 27.5846 237.918 26.9364C237.333 26.2672 236.491 25.9326 235.387 25.9326C234.159 25.9326 233.181 26.3194 232.453 27.0931C231.724 27.8459 231.359 28.9751 231.359 30.4806V38.8239H226.488V21.9492H231.14V23.9252C231.787 23.2143 232.587 22.6707 233.544 22.2943C234.503 21.897 235.555 21.6982 236.7 21.6982Z" fill="#F77E23"/>
<path d="M254.544 21.6982C257.145 21.6982 259.145 22.3256 260.539 23.5802C261.935 24.8139 262.631 26.6854 262.631 29.1947V38.8239H258.072V36.7225C257.157 38.2908 255.45 39.0749 252.951 39.0749C251.661 39.0749 250.536 38.8552 249.578 38.4162C248.642 37.9771 247.923 37.3706 247.424 36.5969C246.924 35.8232 246.675 34.945 246.675 33.9622C246.675 32.3939 247.257 31.1602 248.423 30.2612C249.609 29.3619 251.43 28.9124 253.888 28.9124H257.76C257.76 27.8459 257.438 27.0304 256.791 26.4659C256.146 25.8803 255.178 25.5875 253.888 25.5875C252.993 25.5875 252.108 25.734 251.234 26.0266C250.38 26.2985 249.65 26.6749 249.047 27.1558L247.299 23.7369C248.214 23.0889 249.308 22.5869 250.577 22.2314C251.869 21.8761 253.19 21.6982 254.544 21.6982ZM254.17 35.7814C255.002 35.7814 255.742 35.5933 256.387 35.2169C257.032 34.8196 257.49 34.2445 257.76 33.4917V31.7667H254.419C252.42 31.7667 251.421 32.4253 251.421 33.7427C251.421 34.3701 251.661 34.8719 252.14 35.2483C252.639 35.6038 253.314 35.7814 254.17 35.7814Z" fill="#F77E23"/>
<path d="M271.382 24.1762C271.965 23.3606 272.746 22.7438 273.724 22.3256C274.723 21.9074 275.869 21.6982 277.16 21.6982V26.2149C276.619 26.1731 276.254 26.1522 276.066 26.1522C274.672 26.1522 273.579 26.5495 272.788 27.3441C271.995 28.1178 271.6 29.2887 271.6 30.857V38.8239H266.729V21.9492H271.382V24.1762Z" fill="#F77E23"/>
<path d="M297 21.9492L289.41 39.859C288.641 41.8036 287.683 43.1734 286.539 43.9679C285.413 44.7625 284.049 45.1598 282.447 45.1598C281.573 45.1598 280.709 45.024 279.855 44.7521C279.002 44.4802 278.304 44.1038 277.763 43.6229L279.543 40.1413C279.918 40.4759 280.343 40.7372 280.824 40.9255C281.323 41.1136 281.811 41.2078 282.29 41.2078C282.958 41.2078 283.499 41.0404 283.915 40.7058C284.331 40.3921 284.706 39.859 285.039 39.1062L285.101 38.9495L277.826 21.9492H282.854L287.568 33.3977L292.316 21.9492H297Z" fill="#F77E23"/>
</g>
<defs>
<clipPath id="clip0_1203_18">
<rect width="297" height="57" fill="white"/>
</clipPath>
</defs>
</svg>
