<svg width="14" height="14" viewBox="0 0 14 14" fill="none" xmlns="http://www.w3.org/2000/svg">
<g clip-path="url(#clip0_1206_1074)">
<path opacity="0.4" fill-rule="evenodd" clip-rule="evenodd" d="M13.4821 6.74103C13.4821 3.01806 10.464 -3.8147e-06 6.74103 -3.8147e-06C3.01806 -3.8147e-06 0 3.01806 0 6.74103C0 10.464 3.01806 13.4821 6.74103 13.4821C10.464 13.4821 13.4821 10.464 13.4821 6.74103Z" fill="#696984"/>
<path fill-rule="evenodd" clip-rule="evenodd" d="M10.4862 6.76341C10.4862 4.69509 8.80955 3.01839 6.74123 3.01839C4.67292 3.01839 2.99622 4.69509 2.99622 6.76341C2.99622 8.83172 4.67292 10.5084 6.74123 10.5084C8.80955 10.5084 10.4862 8.83172 10.4862 6.76341Z" fill="#696984"/>
</g>
<defs>
<clipPath id="clip0_1206_1074">
<rect width="13.4821" height="13.4821" fill="white" transform="translate(0 13.4821) rotate(-90)"/>
</clipPath>
</defs>
</svg>
