<svg width="396" height="68" viewBox="0 0 396 68" fill="none" xmlns="http://www.w3.org/2000/svg">
<g clip-path="url(#clip0_1206_1009)">
<path d="M20.7271 9.99477H22.2238C27.4197 10.1072 32.5309 12.1879 36.202 15.8714C34.8465 17.2491 33.4628 18.5707 32.1356 19.9484C30.0742 18.0927 27.5891 16.6587 24.8782 16.1525C20.8683 15.309 16.5478 16.0682 13.1874 18.3457C9.51632 20.7357 7.03131 24.7847 6.49477 29.1148C5.90175 33.3887 7.11602 37.8875 9.91166 41.2054C12.5943 44.4389 16.689 46.4634 20.9248 46.604C24.8782 46.8289 29.0011 45.6199 31.8814 42.8643C34.1405 40.9242 35.1854 37.9718 35.5243 35.1038C30.8366 35.1038 26.149 35.132 21.4613 35.1038V29.3116H41.2002C42.2168 35.5256 40.7484 42.5269 36.0043 46.9695C32.8416 50.1187 28.4646 51.9745 24.0028 52.34C19.6823 52.7617 15.2206 51.9463 11.3801 49.8656C6.77716 47.4194 3.10611 43.2861 1.29883 38.4217C-0.395498 33.951 -0.423737 28.8898 1.15764 24.391C2.59781 20.2858 5.36522 16.6587 8.92331 14.1281C12.3402 11.6256 16.4913 10.2478 20.7271 9.99477Z" fill="#CFCFDE"/>
<path d="M133.965 11.4557H140.008V51.6078C138.003 51.6078 135.97 51.6359 133.965 51.5797C133.993 38.2238 133.965 24.8398 133.965 11.4557Z" fill="#CFCFDE"/>
<path d="M54.6421 25.374C58.3696 24.6711 62.4077 25.4584 65.4858 27.6797C68.2814 29.6479 70.2299 32.7408 70.8229 36.115C71.5853 40.0233 70.6252 44.2972 68.0837 47.3901C65.3446 50.8486 60.8546 52.7044 56.4776 52.4232C52.4677 52.1983 48.5707 50.2019 46.1987 46.9403C43.516 43.3412 42.8665 38.3925 44.3349 34.1748C45.8033 29.6479 49.9544 26.1894 54.6421 25.374ZM55.4892 30.7164C53.9643 31.11 52.5524 31.9817 51.5358 33.2188C48.7966 36.4805 48.9661 41.7947 51.9876 44.8314C53.7102 46.5747 56.3081 47.3901 58.7084 46.9121C60.9393 46.5185 62.8878 45.0283 63.9609 43.06C65.8246 39.714 65.2881 35.1027 62.436 32.4878C60.6004 30.8007 57.9178 30.0978 55.4892 30.7164Z" fill="#CFCFDE"/>
<path d="M84.5752 25.374C88.8392 24.5586 93.4986 25.7395 96.6896 28.72C101.886 33.3594 102.45 42.0478 98.0168 47.3901C95.3342 50.7643 90.9854 52.62 86.6931 52.4232C82.5985 52.3107 78.5603 50.2863 76.1318 46.9403C73.3926 43.2568 72.7996 38.1957 74.3527 33.8937C75.9059 29.5073 79.9723 26.1613 84.5752 25.374ZM85.4223 30.7164C83.8975 31.11 82.4855 31.9817 81.4689 33.1907C78.758 36.3961 78.871 41.626 81.7795 44.6908C83.5021 46.5185 86.1848 47.4183 88.6698 46.9121C90.8724 46.4904 92.8491 45.0283 93.9222 43.06C95.7577 39.6859 95.2212 35.0746 92.3408 32.4597C90.5053 30.7726 87.8226 30.0978 85.4223 30.7164Z" fill="#CFCFDE"/>
<path d="M109.962 27.0049C113.209 24.9804 117.53 24.418 121.031 26.1613C122.133 26.6393 123.036 27.4547 123.912 28.2701C123.94 27.511 123.912 26.7237 123.94 25.9364C125.832 25.9645 127.724 25.9364 129.644 25.9645V50.7643C129.616 54.5039 128.656 58.4685 125.945 61.1959C122.98 64.2045 118.433 65.1324 114.339 64.5138C109.962 63.8671 106.15 60.6898 104.455 56.669C106.15 55.8536 107.929 55.2069 109.679 54.4477C110.668 56.7533 112.673 58.7216 115.186 59.1714C117.699 59.6213 120.608 59.0027 122.246 56.922C123.997 54.7851 123.997 51.8609 123.912 49.2459C122.613 50.5112 121.116 51.6359 119.309 52.0577C115.384 53.1543 111.063 51.8046 108.042 49.1616C104.992 46.5185 103.185 42.4414 103.354 38.3925C103.439 33.8093 106.037 29.3949 109.962 27.0049ZM115.807 30.6039C114.085 30.8851 112.475 31.8411 111.374 33.1626C108.719 36.3118 108.719 41.3449 111.402 44.4378C112.927 46.2654 115.384 47.2777 117.756 47.0246C119.987 46.7997 122.048 45.3938 123.149 43.4537C125.013 40.1639 124.703 35.6932 122.189 32.8252C120.636 31.0538 118.151 30.1821 115.807 30.6039Z" fill="#CFCFDE"/>
<path d="M147.265 28.4388C150.654 25.2896 155.878 24.2212 160.227 25.8801C164.35 27.4266 166.976 31.3349 168.303 35.3558C162.175 37.8864 156.076 40.3888 149.948 42.9194C150.795 44.5221 152.094 45.9843 153.845 46.5747C156.302 47.4464 159.239 47.1371 161.3 45.5063C162.119 44.8877 162.768 44.0723 163.39 43.285C164.943 44.3253 166.496 45.3376 168.049 46.3779C165.847 49.6677 162.147 51.9733 158.166 52.3389C153.76 52.8731 149.073 51.186 146.221 47.7557C141.533 42.3571 141.985 33.3032 147.265 28.4388ZM150.287 33.6406C149.327 35.0184 148.931 36.7054 148.96 38.3644C153.054 36.6773 157.149 34.9902 161.244 33.2751C160.566 31.7005 158.928 30.7445 157.262 30.4914C154.579 30.0134 151.784 31.4474 150.287 33.6406Z" fill="#CFCFDE"/>
</g>
<g clip-path="url(#clip1_1206_1009)">
<path d="M462.023 22.5348C462.023 24.3343 460.561 25.7834 458.748 25.7834C456.934 25.7834 455.473 24.3343 455.473 22.5348C455.473 20.7352 456.884 19.2862 458.748 19.2862C460.613 19.3361 462.023 20.7856 462.023 22.5348ZM448.52 29.0829V29.8828C448.52 29.8828 446.959 27.8825 443.633 27.8825C438.142 27.8825 433.859 32.0314 433.859 37.7791C433.859 43.4774 438.092 47.6757 443.633 47.6757C447.009 47.6757 448.52 45.6265 448.52 45.6265V46.4758C448.52 46.8758 448.823 47.1749 449.226 47.1749H453.306V28.3808H449.226C448.823 28.3823 448.52 28.7329 448.52 29.0829ZM448.52 41.1281C447.765 42.2281 446.253 43.1778 444.44 43.1778C441.215 43.1778 438.746 41.1785 438.746 37.7791C438.746 34.3802 441.215 32.3809 444.44 32.3809C446.203 32.3809 447.815 33.3806 448.52 34.4301V41.1281ZM456.33 28.3823H461.166V47.1763H456.33V28.3823ZM528.578 27.882C525.253 27.882 523.691 29.8823 523.691 29.8823V19.3361H518.854V47.1763H522.936C523.339 47.1763 523.64 46.8263 523.64 46.4763V45.627C523.64 45.627 525.203 47.6762 528.527 47.6762C534.019 47.6762 538.301 43.4789 538.301 37.7806C538.301 32.0823 534.019 27.882 528.578 27.882ZM527.772 43.1273C525.907 43.1273 524.447 42.1786 523.691 41.0781V34.3802C524.447 33.3806 526.059 32.331 527.772 32.331C530.996 32.331 533.465 34.3303 533.465 37.7292C533.465 41.1281 530.997 43.1273 527.772 43.1273ZM516.336 36.0305V47.2263H511.498V36.5797C511.498 33.4814 510.491 32.2311 507.772 32.2311C506.311 32.2311 504.799 32.9811 503.84 34.0811V47.1769H499.005V28.3828H502.833C503.236 28.3828 503.538 28.7329 503.538 29.0829V29.8828C504.949 28.4328 506.813 27.8825 508.677 27.8825C510.793 27.8825 512.557 28.4832 513.968 29.6826C515.68 31.0822 516.336 32.8812 516.336 36.0305ZM487.264 27.882C483.94 27.882 482.377 29.8823 482.377 29.8823V19.3361H477.541V47.1763H481.621C482.024 47.1763 482.327 46.8263 482.327 46.4763V45.627C482.327 45.627 483.889 47.6762 487.214 47.6762C492.706 47.6762 496.988 43.4789 496.988 37.7806C497.038 32.0818 492.756 27.882 487.264 27.882ZM486.458 43.1273C484.594 43.1273 483.133 42.1786 482.377 41.0781V34.3802C483.133 33.3806 484.745 32.331 486.458 32.331C489.683 32.331 492.151 34.3303 492.151 37.7292C492.151 41.1281 489.683 43.1273 486.458 43.1273ZM473.359 27.882C474.819 27.882 475.575 28.1327 475.575 28.1327V32.5806C475.575 32.5806 471.545 31.231 469.026 34.0806V47.2258H464.189V28.3823H468.27C468.673 28.3823 468.975 28.7324 468.975 29.0824V29.8823C469.883 28.8322 471.848 27.882 473.359 27.882ZM423.128 45.4767C422.877 44.877 422.624 44.2274 422.373 43.6771C421.969 42.7778 421.566 41.9275 421.214 41.1281L421.164 41.0781C417.687 33.5803 413.959 25.9836 410.029 18.4867L409.878 18.1861C409.464 17.4084 409.062 16.6253 408.669 15.8368C408.165 14.9366 407.662 13.9878 406.855 13.0876C405.243 11.0883 402.926 9.98825 400.457 9.98825C397.938 9.98825 395.671 11.0883 394.009 12.9872C393.253 13.8865 392.698 14.8362 392.195 15.7365C391.802 16.5244 391.399 17.3076 390.986 18.0858L390.835 18.3864C386.955 25.8832 383.177 33.4804 379.7 40.9778L379.65 41.0771C379.297 41.878 378.894 42.7274 378.49 43.6262C378.239 44.1764 377.987 44.7761 377.735 45.4257C377.08 47.2747 376.878 49.0244 377.131 50.8244C377.685 54.5733 380.204 57.7211 383.681 59.1217C384.991 59.6719 386.351 59.9216 387.762 59.9216C388.165 59.9216 388.668 59.8717 389.072 59.8212C390.735 59.6215 392.447 59.0722 394.11 58.1225C396.176 56.9726 398.141 55.3238 400.358 52.9246C402.574 55.3238 404.59 56.9726 406.605 58.1225C408.268 59.0722 409.981 59.6215 411.643 59.8212C412.046 59.8722 412.55 59.9216 412.954 59.9216C414.364 59.9216 415.775 59.6719 417.034 59.1217C420.561 57.7211 423.03 54.5234 423.584 50.8244C423.984 49.0753 423.783 47.3267 423.128 45.4767ZM400.406 48.0756C397.686 44.6767 395.922 41.4781 395.318 38.7797C395.066 37.6298 395.015 36.6302 395.167 35.7304C395.267 34.9305 395.57 34.2304 395.973 33.6307C396.931 32.282 398.543 31.4317 400.407 31.4317C402.272 31.4317 403.934 32.2316 404.841 33.6307C405.244 34.2304 405.546 34.931 405.648 35.7304C405.798 36.6307 405.748 37.6797 405.496 38.7797C404.89 41.4281 403.126 44.6273 400.406 48.0756ZM420.508 50.425C420.156 53.0239 418.392 55.2739 415.924 56.2735C414.715 56.7728 413.404 56.9231 412.095 56.7728C410.836 56.6225 409.575 56.2226 408.266 55.4736C406.452 54.473 404.639 52.9246 402.522 50.6247C405.847 46.5767 407.863 42.8772 408.619 39.5792C408.971 38.0293 409.022 36.6301 408.87 35.3299C408.669 34.0806 408.215 32.9307 407.51 31.931C405.947 29.6811 403.327 28.3823 400.406 28.3823C397.485 28.3823 394.864 29.732 393.303 31.931C392.597 32.9307 392.143 34.0806 391.942 35.3299C391.741 36.6301 391.791 38.0792 392.194 39.5792C392.949 42.8772 395.015 46.6261 398.289 50.6746C396.224 52.974 394.36 54.5239 392.546 55.5236C391.235 56.2735 389.977 56.6735 388.717 56.8228C387.357 56.9731 386.047 56.7729 384.888 56.3235C382.42 55.3238 380.656 53.0739 380.304 50.4749C380.153 49.2256 380.253 47.9763 380.757 46.5767C380.908 46.0763 381.161 45.577 381.412 44.9773C381.765 44.1774 382.167 43.3271 382.571 42.4777L382.622 42.3784C386.098 34.9305 389.826 27.3332 393.705 19.9363L393.856 19.6357C394.26 18.8867 394.663 18.0868 395.066 17.3368C395.469 16.5369 395.922 15.7869 396.477 15.1368C397.535 13.9384 398.945 13.2878 400.507 13.2878C402.069 13.2878 403.48 13.9384 404.538 15.1368C405.092 15.7884 405.545 16.5384 405.948 17.3368C406.352 18.0868 406.755 18.8867 407.157 19.6357L407.309 19.9363C411.129 27.364 414.808 34.8627 418.343 42.4283V42.4782C418.746 43.2791 419.099 44.1779 419.502 44.9788C419.753 45.5775 420.006 46.0769 420.157 46.5772C420.559 47.8754 420.71 49.1257 420.508 50.425Z" fill="#CFCFDE"/>
</g>
<g clip-path="url(#clip2_1206_1009)">
<path d="M340.241 33.383L348.336 54.6759C345.951 54.3374 343.566 53.9134 341.138 53.5314L336.577 41.7662L331.891 52.5602C329.591 52.1782 327.332 52.0509 325.032 51.7543L333.255 33.1299L325.797 14.0407H332.7L336.874 24.7061L341.349 14.0407H348.335L340.241 33.383ZM320.346 14.0407H314.083V50.951C316.128 51.0784 318.257 51.1623 320.346 51.4156V14.0407ZM308.671 50.5272C302.963 50.1465 297.253 49.8093 291.416 49.6806V14.0409H297.807V43.6705C301.471 43.7546 305.135 44.0499 308.671 44.2192V50.5272ZM284.598 28.4756V34.8242H275.864V49.2578H269.56V14.0407H287.454V20.3893H275.865V28.4758H284.599L284.598 28.4756ZM258.822 20.3893V49.5965C256.691 49.5965 254.519 49.5965 252.43 49.6806V20.3893H245.826V14.0407H265.467V20.3893H258.822ZM238.925 35.1616C236.113 35.1616 232.789 35.1616 230.403 35.2903V44.7284C234.153 44.4738 237.902 44.1784 241.693 44.0512V50.1465L224.013 51.5443V14.0407H241.692V20.3893H230.403V28.9402C232.875 28.9402 236.667 28.813 238.924 28.813V35.1629L238.925 35.1616ZM203.517 31.6059V53.786C201.218 54.0406 199.172 54.3372 197 54.6759V14.0407H203.093L211.4 37.1108V14.0407H217.792V52.0509C215.534 52.4329 213.233 52.5602 210.805 52.8975L203.517 31.6059Z" fill="#CFCFDE"/>
</g>
<defs>
<clipPath id="clip0_1206_1009">
<rect width="168.303" height="54.6985" fill="white" transform="translate(0 9.9888)"/>
</clipPath>
<clipPath id="clip1_1206_1009">
<rect width="161.323" height="49.9333" fill="white" transform="translate(377 9.9888)"/>
</clipPath>
<clipPath id="clip2_1206_1009">
<rect width="151.336" height="40.7149" fill="white" transform="translate(197 14)"/>
</clipPath>
</defs>
</svg>
