<svg width="280" height="80" viewBox="0 0 280 80" fill="none" xmlns="http://www.w3.org/2000/svg">
<rect x="0.5" y="0.5" width="279" height="79" rx="39.5" stroke="#F77E23"/>
<path d="M48.93 47.198C47.7127 47.198 46.6127 47.044 45.63 46.736C44.6473 46.4133 43.7967 45.9513 43.078 45.35L43.716 43.898C44.464 44.47 45.2487 44.8953 46.07 45.174C46.8913 45.4527 47.8447 45.592 48.93 45.592C50.25 45.592 51.2253 45.35 51.856 44.866C52.5013 44.3673 52.824 43.7147 52.824 42.908C52.824 42.2627 52.5893 41.7493 52.12 41.368C51.6653 40.9867 50.8953 40.686 49.81 40.466L47.522 40.004C46.1433 39.7107 45.1093 39.234 44.42 38.574C43.7453 37.8993 43.408 37.0047 43.408 35.89C43.408 34.966 43.6427 34.1593 44.112 33.47C44.596 32.7807 45.2633 32.2453 46.114 31.864C46.9647 31.4827 47.9473 31.292 49.062 31.292C50.1033 31.292 51.0713 31.4607 51.966 31.798C52.8607 32.1207 53.616 32.59 54.232 33.206L53.594 34.614C52.934 34.0127 52.2373 33.58 51.504 33.316C50.7707 33.0373 49.9493 32.898 49.04 32.898C47.8813 32.898 46.9573 33.1693 46.268 33.712C45.5787 34.24 45.234 34.944 45.234 35.824C45.234 36.528 45.4467 37.0853 45.872 37.496C46.312 37.9067 47.0233 38.2073 48.006 38.398L50.294 38.882C51.7753 39.19 52.868 39.6593 53.572 40.29C54.2907 40.906 54.65 41.7493 54.65 42.82C54.65 43.6853 54.4153 44.448 53.946 45.108C53.4913 45.768 52.8313 46.2813 51.966 46.648C51.1153 47.0147 50.1033 47.198 48.93 47.198ZM62.0252 47.198C60.3385 47.198 59.0038 46.7067 58.0212 45.724C57.0385 44.7267 56.5472 43.3773 56.5472 41.676C56.5472 40.576 56.7672 39.608 57.2072 38.772C57.6472 37.9213 58.2485 37.2687 59.0112 36.814C59.7885 36.3447 60.6832 36.11 61.6952 36.11C63.1472 36.11 64.2838 36.5793 65.1052 37.518C65.9265 38.442 66.3372 39.718 66.3372 41.346V42.028H58.2852C58.3438 43.2453 58.6958 44.1767 59.3412 44.822C59.9865 45.4527 60.8812 45.768 62.0252 45.768C62.6705 45.768 63.2865 45.6727 63.8732 45.482C64.4598 45.2767 65.0172 44.9467 65.5452 44.492L66.1612 45.746C65.6772 46.2007 65.0612 46.56 64.3132 46.824C63.5652 47.0733 62.8025 47.198 62.0252 47.198ZM61.7392 37.43C60.7272 37.43 59.9278 37.7453 59.3412 38.376C58.7545 39.0067 58.4098 39.8353 58.3072 40.862H64.7972C64.7532 39.7767 64.4672 38.9333 63.9392 38.332C63.4258 37.7307 62.6925 37.43 61.7392 37.43ZM73.7341 47.198C72.0475 47.198 70.7128 46.7067 69.7301 45.724C68.7475 44.7267 68.2561 43.3773 68.2561 41.676C68.2561 40.576 68.4761 39.608 68.9161 38.772C69.3561 37.9213 69.9575 37.2687 70.7201 36.814C71.4975 36.3447 72.3921 36.11 73.4041 36.11C74.8561 36.11 75.9928 36.5793 76.8141 37.518C77.6355 38.442 78.0461 39.718 78.0461 41.346V42.028H69.9941C70.0528 43.2453 70.4048 44.1767 71.0501 44.822C71.6955 45.4527 72.5901 45.768 73.7341 45.768C74.3795 45.768 74.9955 45.6727 75.5821 45.482C76.1688 45.2767 76.7261 44.9467 77.2541 44.492L77.8701 45.746C77.3861 46.2007 76.7701 46.56 76.0221 46.824C75.2741 47.0733 74.5115 47.198 73.7341 47.198ZM73.4481 37.43C72.4361 37.43 71.6368 37.7453 71.0501 38.376C70.4635 39.0067 70.1188 39.8353 70.0161 40.862H76.5061C76.4621 39.7767 76.1761 38.9333 75.6481 38.332C75.1348 37.7307 74.4015 37.43 73.4481 37.43ZM85.0215 47L91.8635 31.49H93.4035L100.246 47H98.3755L96.6595 43.04H88.5855L86.8915 47H85.0215ZM92.6115 33.602L89.2455 41.522H96.0215L92.6555 33.602H92.6115ZM105.581 47.198C104.496 47.198 103.674 46.8827 103.117 46.252C102.574 45.6067 102.303 44.6753 102.303 43.458V31.49H104.085V43.326C104.085 44.8953 104.708 45.68 105.955 45.68C106.322 45.68 106.652 45.636 106.945 45.548L106.901 47.044C106.446 47.1467 106.006 47.198 105.581 47.198ZM112.091 47.198C111.005 47.198 110.184 46.8827 109.627 46.252C109.084 45.6067 108.813 44.6753 108.813 43.458V31.49H110.595V43.326C110.595 44.8953 111.218 45.68 112.465 45.68C112.831 45.68 113.161 45.636 113.455 45.548L113.411 47.044C112.956 47.1467 112.516 47.198 112.091 47.198ZM121.215 47V31.49H123.019V47H121.215ZM126.602 47V36.308H128.34V38.134C128.692 37.4593 129.19 36.9533 129.836 36.616C130.481 36.2787 131.207 36.11 132.014 36.11C134.551 36.11 135.82 37.518 135.82 40.334V47H134.038V40.444C134.038 39.4467 133.84 38.7207 133.444 38.266C133.062 37.7967 132.446 37.562 131.596 37.562C130.613 37.562 129.828 37.87 129.242 38.486C128.67 39.0873 128.384 39.894 128.384 40.906V47H126.602ZM143.396 47.198C142.134 47.198 141.188 46.868 140.558 46.208C139.927 45.5333 139.612 44.5653 139.612 43.304V37.694H137.522V36.308H139.612V33.03H141.394V36.308H144.782V37.694H141.394V43.128C141.394 43.964 141.57 44.602 141.922 45.042C142.274 45.4673 142.846 45.68 143.638 45.68C143.872 45.68 144.107 45.6507 144.342 45.592C144.576 45.5333 144.789 45.4747 144.98 45.416L145.288 46.78C145.097 46.8827 144.818 46.978 144.452 47.066C144.085 47.154 143.733 47.198 143.396 47.198ZM151.508 47.198C149.821 47.198 148.486 46.7067 147.504 45.724C146.521 44.7267 146.03 43.3773 146.03 41.676C146.03 40.576 146.25 39.608 146.69 38.772C147.13 37.9213 147.731 37.2687 148.494 36.814C149.271 36.3447 150.166 36.11 151.178 36.11C152.63 36.11 153.766 36.5793 154.588 37.518C155.409 38.442 155.82 39.718 155.82 41.346V42.028H147.768C147.826 43.2453 148.178 44.1767 148.824 44.822C149.469 45.4527 150.364 45.768 151.508 45.768C152.153 45.768 152.769 45.6727 153.356 45.482C153.942 45.2767 154.5 44.9467 155.028 44.492L155.644 45.746C155.16 46.2007 154.544 46.56 153.796 46.824C153.048 47.0733 152.285 47.198 151.508 47.198ZM151.222 37.43C150.21 37.43 149.41 37.7453 148.824 38.376C148.237 39.0067 147.892 39.8353 147.79 40.862H154.28C154.236 39.7767 153.95 38.9333 153.422 38.332C152.908 37.7307 152.175 37.43 151.222 37.43ZM163.129 51.158C162.205 51.158 161.332 51.0333 160.511 50.784C159.704 50.5493 158.985 50.19 158.355 49.706L158.949 48.408C159.609 48.8773 160.261 49.2147 160.907 49.42C161.567 49.6253 162.278 49.728 163.041 49.728C165.153 49.728 166.209 48.6427 166.209 46.472V44.58C165.901 45.2547 165.417 45.79 164.757 46.186C164.111 46.5673 163.371 46.758 162.535 46.758C161.552 46.758 160.701 46.5307 159.983 46.076C159.264 45.6213 158.707 44.998 158.311 44.206C157.929 43.3993 157.739 42.468 157.739 41.412C157.739 40.356 157.929 39.432 158.311 38.64C158.707 37.8333 159.264 37.21 159.983 36.77C160.701 36.33 161.552 36.11 162.535 36.11C163.371 36.11 164.111 36.3007 164.757 36.682C165.417 37.0633 165.901 37.584 166.209 38.244V36.308H167.947V46.23C167.947 47.8727 167.536 49.1047 166.715 49.926C165.908 50.7473 164.713 51.158 163.129 51.158ZM162.865 45.306C163.891 45.306 164.705 44.954 165.307 44.25C165.908 43.546 166.209 42.6 166.209 41.412C166.209 40.224 165.908 39.2853 165.307 38.596C164.705 37.892 163.891 37.54 162.865 37.54C161.853 37.54 161.046 37.892 160.445 38.596C159.843 39.2853 159.543 40.224 159.543 41.412C159.543 42.6 159.843 43.546 160.445 44.25C161.046 44.954 161.853 45.306 162.865 45.306ZM171.289 47V36.308H173.027V38.222C173.599 36.9313 174.773 36.22 176.547 36.088L177.185 36.022L177.317 37.562L176.195 37.694C175.183 37.782 174.413 38.1047 173.885 38.662C173.357 39.2047 173.093 39.9527 173.093 40.906V47H171.289ZM182.433 47.198C181.699 47.198 181.039 47.0587 180.453 46.78C179.881 46.4867 179.426 46.0907 179.089 45.592C178.751 45.0933 178.583 44.536 178.583 43.92C178.583 43.1427 178.781 42.5267 179.177 42.072C179.587 41.6173 180.255 41.2947 181.179 41.104C182.117 40.8987 183.393 40.796 185.007 40.796H185.711V40.114C185.711 39.2047 185.52 38.552 185.139 38.156C184.772 37.7453 184.178 37.54 183.357 37.54C182.711 37.54 182.088 37.6353 181.487 37.826C180.885 38.002 180.269 38.2953 179.639 38.706L179.023 37.408C179.58 37.012 180.255 36.6967 181.047 36.462C181.853 36.2273 182.623 36.11 183.357 36.11C184.735 36.11 185.755 36.4473 186.415 37.122C187.089 37.7967 187.427 38.8453 187.427 40.268V47H185.755V45.152C185.476 45.7827 185.043 46.2813 184.457 46.648C183.885 47.0147 183.21 47.198 182.433 47.198ZM182.719 45.856C183.599 45.856 184.317 45.5553 184.875 44.954C185.432 44.338 185.711 43.5607 185.711 42.622V41.962H185.029C183.841 41.962 182.902 42.0207 182.213 42.138C181.538 42.2407 181.061 42.4313 180.783 42.71C180.519 42.974 180.387 43.3407 180.387 43.81C180.387 44.4113 180.592 44.9027 181.003 45.284C181.428 45.6653 182 45.856 182.719 45.856ZM195.023 47.198C193.761 47.198 192.815 46.868 192.185 46.208C191.554 45.5333 191.239 44.5653 191.239 43.304V37.694H189.149V36.308H191.239V33.03H193.021V36.308H196.409V37.694H193.021V43.128C193.021 43.964 193.197 44.602 193.549 45.042C193.901 45.4673 194.473 45.68 195.265 45.68C195.499 45.68 195.734 45.6507 195.969 45.592C196.203 45.5333 196.416 45.4747 196.607 45.416L196.915 46.78C196.724 46.8827 196.445 46.978 196.079 47.066C195.712 47.154 195.36 47.198 195.023 47.198ZM198.204 33.646V31.644H200.404V33.646H198.204ZM198.424 47V36.308H200.206V47H198.424ZM207.981 47.198C206.94 47.198 206.038 46.9707 205.275 46.516C204.513 46.0613 203.919 45.4233 203.493 44.602C203.083 43.766 202.877 42.7833 202.877 41.654C202.877 40.5247 203.083 39.5493 203.493 38.728C203.919 37.892 204.513 37.2467 205.275 36.792C206.038 36.3373 206.94 36.11 207.981 36.11C209.008 36.11 209.903 36.3373 210.665 36.792C211.443 37.2467 212.037 37.892 212.447 38.728C212.873 39.5493 213.085 40.5247 213.085 41.654C213.085 42.7833 212.873 43.766 212.447 44.602C212.037 45.4233 211.443 46.0613 210.665 46.516C209.903 46.9707 209.008 47.198 207.981 47.198ZM207.981 45.768C208.979 45.768 209.778 45.416 210.379 44.712C210.981 43.9933 211.281 42.974 211.281 41.654C211.281 40.3193 210.981 39.3 210.379 38.596C209.778 37.892 208.979 37.54 207.981 37.54C206.969 37.54 206.163 37.892 205.561 38.596C204.975 39.3 204.681 40.3193 204.681 41.654C204.681 42.974 204.975 43.9933 205.561 44.712C206.163 45.416 206.969 45.768 207.981 45.768ZM215.762 47V36.308H217.5V38.134C217.852 37.4593 218.351 36.9533 218.996 36.616C219.641 36.2787 220.367 36.11 221.174 36.11C223.711 36.11 224.98 37.518 224.98 40.334V47H223.198V40.444C223.198 39.4467 223 38.7207 222.604 38.266C222.223 37.7967 221.607 37.562 220.756 37.562C219.773 37.562 218.989 37.87 218.402 38.486C217.83 39.0873 217.544 39.894 217.544 40.906V47H215.762ZM231.874 47.198C231.038 47.198 230.246 47.0807 229.498 46.846C228.75 46.6113 228.134 46.2813 227.65 45.856L228.222 44.602C228.75 45.0273 229.329 45.3427 229.96 45.548C230.605 45.7387 231.258 45.834 231.918 45.834C232.754 45.834 233.384 45.68 233.81 45.372C234.235 45.064 234.448 44.646 234.448 44.118C234.448 43.7073 234.308 43.3847 234.03 43.15C233.751 42.9007 233.311 42.71 232.71 42.578L230.708 42.138C228.889 41.742 227.98 40.8033 227.98 39.322C227.98 38.354 228.361 37.5767 229.124 36.99C229.901 36.4033 230.913 36.11 232.16 36.11C232.893 36.11 233.59 36.2273 234.25 36.462C234.924 36.682 235.482 37.012 235.922 37.452L235.328 38.706C234.902 38.31 234.404 38.0093 233.832 37.804C233.274 37.584 232.717 37.474 232.16 37.474C231.338 37.474 230.715 37.6353 230.29 37.958C229.864 38.2807 229.652 38.706 229.652 39.234C229.652 40.0553 230.194 40.5833 231.28 40.818L233.282 41.236C234.22 41.4413 234.932 41.7713 235.416 42.226C235.9 42.666 236.142 43.2673 236.142 44.03C236.142 45.0127 235.753 45.79 234.976 46.362C234.198 46.9193 233.164 47.198 231.874 47.198Z" fill="#F77E23"/>
</svg>
