<svg width="159" height="31" viewBox="0 0 159 31" fill="none" xmlns="http://www.w3.org/2000/svg">
<path d="M14.7134 30.0252C22.8393 30.0252 29.4268 23.3038 29.4268 15.0126C29.4268 6.72136 22.8393 0 14.7134 0C6.5874 0 0 6.72136 0 15.0126C0 23.3038 6.5874 30.0252 14.7134 30.0252Z" fill="#F77D27"/>
<path fill-rule="evenodd" clip-rule="evenodd" d="M21.7484 18.1874C20.5538 20.9389 17.854 22.8584 14.7148 22.8584C11.8493 22.8584 9.34983 21.2589 8.02728 18.8873H11.3924V19.2747L13.1011 18.3061L11.3924 17.2407V17.8218H7.53333C7.20551 16.9498 7.02588 16.0028 7.02588 15.013C7.02588 10.6802 10.4684 7.16774 14.7148 7.16774C17.5411 7.16774 20.0113 8.72372 21.3474 11.042H18.4169V10.4608L16.7083 11.5262L18.4169 12.4948V12.1074H21.8592C21.9125 12.244 21.9624 12.3825 22.0083 12.5228C22.9733 13.5602 24.8113 13.7106 26.1836 13.0965C26.85 11.9807 28.0539 11.2356 29.4282 11.2356C31.5252 11.2356 33.2252 12.9702 33.2252 15.1099C33.2252 17.2495 31.5252 18.9841 29.4282 18.9841C28.1521 18.9841 27.023 18.3418 26.3347 17.3568C24.3972 16.8533 23.1632 16.8533 21.7484 18.1874Z" fill="white"/>
<path d="M41.7308 21.3192C40.5382 21.3192 39.457 21.0577 38.4874 20.5346C37.5289 20.0001 36.7709 19.2665 36.2136 18.334C35.6675 17.3901 35.3944 16.3268 35.3944 15.144C35.3944 13.9614 35.6675 12.9036 36.2136 11.9712C36.7709 11.0272 37.5289 10.2937 38.4874 9.77059C39.457 9.23609 40.5438 8.96884 41.7475 8.96884C42.7618 8.96884 43.6757 9.1508 44.4893 9.51471C45.3141 9.87863 46.0052 10.4017 46.5625 11.0841L44.8237 12.7218C44.0324 11.7892 43.0515 11.323 41.8812 11.323C41.1568 11.323 40.5104 11.4879 39.9419 11.8176C39.3735 12.1361 38.9277 12.5853 38.6044 13.1653C38.2924 13.7453 38.1363 14.4049 38.1363 15.144C38.1363 15.8833 38.2924 16.5428 38.6044 17.1228C38.9277 17.7029 39.3735 18.1577 39.9419 18.4876C40.5104 18.8059 41.1568 18.9652 41.8812 18.9652C43.0515 18.9652 44.0324 18.4932 44.8237 17.5493L46.5625 19.1869C46.0052 19.8806 45.3141 20.4095 44.4893 20.7734C43.6645 21.1372 42.7451 21.3192 41.7308 21.3192Z" fill="#F77E23"/>
<path d="M52.0102 21.251C51.0627 21.251 50.2101 21.052 49.4522 20.654C48.7054 20.2446 48.1203 19.6816 47.6967 18.9652C47.2732 18.2487 47.0614 17.4355 47.0614 16.5258C47.0614 15.616 47.2732 14.8029 47.6967 14.0864C48.1203 13.37 48.7054 12.8127 49.4522 12.4147C50.2101 12.0053 51.0627 11.8006 52.0102 11.8006C52.9576 11.8006 53.8046 12.0053 54.5513 12.4147C55.2981 12.8127 55.8833 13.37 56.3068 14.0864C56.7303 14.8029 56.9421 15.616 56.9421 16.5258C56.9421 17.4355 56.7303 18.2487 56.3068 18.9652C55.8833 19.6816 55.2981 20.2446 54.5513 20.654C53.8046 21.052 52.9576 21.251 52.0102 21.251ZM52.0102 19.0675C52.6789 19.0675 53.225 18.84 53.6486 18.3852C54.0832 17.9189 54.3006 17.2991 54.3006 16.5258C54.3006 15.7524 54.0832 15.1383 53.6486 14.6835C53.225 14.2172 52.6789 13.9841 52.0102 13.9841C51.3413 13.9841 50.7897 14.2172 50.355 14.6835C49.9203 15.1383 49.7029 15.7524 49.7029 16.5258C49.7029 17.2991 49.9203 17.9189 50.355 18.3852C50.7897 18.84 51.3413 19.0675 52.0102 19.0675Z" fill="#F77E23"/>
<path d="M63.9852 11.8006C65.0998 11.8006 65.997 12.1418 66.6769 12.8241C67.3679 13.5064 67.7135 14.5185 67.7135 15.8605V21.1145H65.1053V16.2699C65.1053 15.5421 64.9493 15.0019 64.6373 14.6494C64.3251 14.2854 63.8738 14.1035 63.283 14.1035C62.6255 14.1035 62.1016 14.3138 61.7115 14.7346C61.3213 15.144 61.1263 15.7581 61.1263 16.5769V21.1145H58.5182V11.9371H61.0093V13.0117C61.3548 12.6251 61.7839 12.3294 62.2966 12.1247C62.8093 11.9087 63.3721 11.8006 63.9852 11.8006Z" fill="#F77E23"/>
<path d="M75.7118 20.671C75.4553 20.8643 75.1377 21.0122 74.7588 21.1145C74.3909 21.2056 74.0008 21.251 73.5885 21.251C72.5185 21.251 71.6882 20.9724 71.0974 20.4152C70.5178 19.8579 70.228 19.0391 70.228 17.9587V14.1888H68.8403V12.1418H70.228V9.90707H72.8361V12.1418H75.0764V14.1888H72.8361V17.9246C72.8361 18.3113 72.9309 18.6126 73.1204 18.8287C73.321 19.0334 73.5996 19.1358 73.9563 19.1358C74.3687 19.1358 74.7198 19.022 75.0095 18.7946L75.7118 20.671Z" fill="#F77E23"/>
<path d="M85.5417 16.5599C85.5417 16.594 85.525 16.8329 85.4916 17.2764H78.6871C78.8097 17.8449 79.0995 18.2942 79.5564 18.624C80.0135 18.9538 80.5818 19.1187 81.2618 19.1187C81.7298 19.1187 82.1422 19.0504 82.4989 18.914C82.8667 18.7662 83.2067 18.5387 83.5187 18.2316L84.9064 19.7669C84.0593 20.7564 82.8222 21.251 81.1949 21.251C80.1807 21.251 79.2834 21.052 78.5032 20.654C77.7229 20.2446 77.1211 19.6816 76.6976 18.9652C76.274 18.2487 76.0623 17.4355 76.0623 16.5258C76.0623 15.6274 76.2685 14.82 76.6808 14.1035C77.1044 13.3757 77.6784 12.8127 78.4029 12.4147C79.1385 12.0053 79.9577 11.8006 80.8605 11.8006C81.741 11.8006 82.5379 11.9939 83.2513 12.3806C83.9646 12.7673 84.5219 13.3244 84.9231 14.0523C85.3355 14.7687 85.5417 15.6047 85.5417 16.5599ZM80.8772 13.8135C80.2865 13.8135 79.7906 13.9841 79.3893 14.3252C78.9881 14.6664 78.7428 15.1327 78.6537 15.724H83.0841C82.9949 15.144 82.7497 14.6835 82.3484 14.3423C81.9472 13.9898 81.4568 13.8135 80.8772 13.8135Z" fill="#F77E23"/>
<path d="M92.5779 11.8006C93.6924 11.8006 94.5897 12.1418 95.2696 12.8241C95.9607 13.5064 96.3061 14.5185 96.3061 15.8605V21.1145H93.698V16.2699C93.698 15.5421 93.5421 15.0019 93.2299 14.6494C92.9179 14.2854 92.4664 14.1035 91.8757 14.1035C91.2181 14.1035 90.6943 14.3138 90.3042 14.7346C89.9141 15.144 89.7191 15.7581 89.7191 16.5769V21.1145H87.111V11.9371H89.602V13.0117C89.9475 12.6251 90.3766 12.3294 90.8893 12.1247C91.402 11.9087 91.9649 11.8006 92.5779 11.8006Z" fill="#F77E23"/>
<path d="M104.304 20.671C104.048 20.8643 103.731 21.0122 103.351 21.1145C102.983 21.2056 102.594 21.251 102.181 21.251C101.111 21.251 100.281 20.9724 99.6901 20.4152C99.1105 19.8579 98.8208 19.0391 98.8208 17.9587V14.1888H97.4331V12.1418H98.8208V9.90707H101.429V12.1418H103.669V14.1888H101.429V17.9246C101.429 18.3113 101.524 18.6126 101.713 18.8287C101.914 19.0334 102.192 19.1358 102.549 19.1358C102.961 19.1358 103.313 19.022 103.602 18.7946L104.304 20.671Z" fill="#F77E23"/>
<path d="M105.601 11.9371H108.209V21.1145H105.601V11.9371ZM106.906 10.6576C106.426 10.6576 106.036 10.5155 105.735 10.2312C105.434 9.94686 105.283 9.59432 105.283 9.17355C105.283 8.75276 105.434 8.40022 105.735 8.11591C106.036 7.83161 106.426 7.68945 106.906 7.68945C107.385 7.68945 107.775 7.82591 108.075 8.09886C108.376 8.37179 108.527 8.71296 108.527 9.12237C108.527 9.56589 108.376 9.9355 108.075 10.2312C107.775 10.5155 107.385 10.6576 106.906 10.6576Z" fill="#F77E23"/>
<path d="M114.742 21.251C113.795 21.251 112.943 21.052 112.185 20.654C111.438 20.2446 110.852 19.6816 110.429 18.9652C110.006 18.2487 109.794 17.4355 109.794 16.5258C109.794 15.616 110.006 14.8029 110.429 14.0864C110.852 13.37 111.438 12.8127 112.185 12.4147C112.943 12.0053 113.795 11.8006 114.742 11.8006C115.69 11.8006 116.537 12.0053 117.284 12.4147C118.031 12.8127 118.616 13.37 119.039 14.0864C119.463 14.8029 119.674 15.616 119.674 16.5258C119.674 17.4355 119.463 18.2487 119.039 18.9652C118.616 19.6816 118.031 20.2446 117.284 20.654C116.537 21.052 115.69 21.251 114.742 21.251ZM114.742 19.0675C115.412 19.0675 115.958 18.84 116.381 18.3852C116.815 17.9189 117.033 17.2991 117.033 16.5258C117.033 15.7524 116.815 15.1383 116.381 14.6835C115.958 14.2172 115.412 13.9841 114.742 13.9841C114.074 13.9841 113.522 14.2172 113.087 14.6835C112.653 15.1383 112.435 15.7524 112.435 16.5258C112.435 17.2991 112.653 17.9189 113.087 18.3852C113.522 18.84 114.074 19.0675 114.742 19.0675Z" fill="#F77E23"/>
<path d="M126.718 11.8006C127.832 11.8006 128.729 12.1418 129.41 12.8241C130.101 13.5064 130.446 14.5185 130.446 15.8605V21.1145H127.838V16.2699C127.838 15.5421 127.682 15.0019 127.37 14.6494C127.057 14.2854 126.607 14.1035 126.015 14.1035C125.358 14.1035 124.834 14.3138 124.444 14.7346C124.054 15.144 123.859 15.7581 123.859 16.5769V21.1145H121.251V11.9371H123.742V13.0117C124.088 12.6251 124.516 12.3294 125.029 12.1247C125.542 11.9087 126.105 11.8006 126.718 11.8006Z" fill="#F77E23"/>
<path d="M136.271 11.8006C137.664 11.8006 138.734 12.1418 139.48 12.8241C140.228 13.495 140.601 14.5129 140.601 15.8776V21.1145H138.16V19.9717C137.67 20.8246 136.756 21.251 135.418 21.251C134.728 21.251 134.125 21.1316 133.613 20.8928C133.111 20.654 132.727 20.3241 132.459 19.9033C132.192 19.4826 132.058 19.005 132.058 18.4704C132.058 17.6175 132.37 16.9466 132.994 16.4576C133.629 15.9685 134.604 15.724 135.92 15.724H137.993C137.993 15.144 137.821 14.7005 137.474 14.3935C137.129 14.075 136.61 13.9158 135.92 13.9158C135.441 13.9158 134.967 13.9955 134.499 14.1546C134.042 14.3025 133.651 14.5072 133.328 14.7687L132.392 12.9093C132.882 12.5569 133.468 12.2839 134.147 12.0905C134.839 11.8973 135.546 11.8006 136.271 11.8006ZM136.071 19.4598C136.516 19.4598 136.912 19.3575 137.258 19.1528C137.603 18.9368 137.848 18.624 137.993 18.2146V17.2764H136.204C135.134 17.2764 134.599 17.6346 134.599 18.3511C134.599 18.6923 134.728 18.9652 134.984 19.1699C135.251 19.3632 135.613 19.4598 136.071 19.4598Z" fill="#F77E23"/>
<path d="M145.286 13.1482C145.597 12.7046 146.016 12.3692 146.539 12.1418C147.074 11.9143 147.688 11.8006 148.378 11.8006V14.257C148.089 14.2343 147.893 14.2229 147.793 14.2229C147.047 14.2229 146.461 14.439 146.038 14.8711C145.614 15.2919 145.402 15.9287 145.402 16.7816V21.1145H142.794V11.9371H145.286V13.1482Z" fill="#F77E23"/>
<path d="M159 11.9371L154.937 21.6775C154.525 22.7351 154.012 23.48 153.4 23.9122C152.797 24.3443 152.067 24.5604 151.209 24.5604C150.741 24.5604 150.278 24.4865 149.822 24.3386C149.365 24.1908 148.991 23.986 148.701 23.7245L149.654 21.831C149.855 22.013 150.083 22.1551 150.34 22.2575C150.607 22.3598 150.869 22.411 151.125 22.411C151.482 22.411 151.772 22.32 151.995 22.138C152.218 21.9674 152.418 21.6775 152.596 21.2681L152.63 21.1828L148.735 11.9371H151.427L153.95 18.1634L156.492 11.9371H159Z" fill="#F77E23"/>
</svg>
