<svg width="23" height="20" viewBox="0 0 23 20" fill="none" xmlns="http://www.w3.org/2000/svg">
<g clip-path="url(#clip0_1206_1232)">
<path d="M2.33828 6.59341C3.48001 6.59341 4.40828 5.60783 4.40828 4.3956C4.40828 3.18338 3.48001 2.1978 2.33828 2.1978C1.19654 2.1978 0.268276 3.18338 0.268276 4.3956C0.268276 5.60783 1.19654 6.59341 2.33828 6.59341ZM16.8283 6.59341C17.97 6.59341 18.8983 5.60783 18.8983 4.3956C18.8983 3.18338 17.97 2.1978 16.8283 2.1978C15.6865 2.1978 14.7583 3.18338 14.7583 4.3956C14.7583 5.60783 15.6865 6.59341 16.8283 6.59341ZM17.8633 7.69231H15.7933C15.224 7.69231 14.7098 7.93613 14.3346 8.33104C15.638 9.08997 16.5631 10.4602 16.7636 12.0879H18.8983C19.4708 12.0879 19.9333 11.5968 19.9333 10.989V9.89011C19.9333 8.67788 19.005 7.69231 17.8633 7.69231ZM9.58328 7.69231C11.5854 7.69231 13.2058 5.97184 13.2058 3.84615C13.2058 1.72047 11.5854 0 9.58328 0C7.5812 0 5.96078 1.72047 5.96078 3.84615C5.96078 5.97184 7.5812 7.69231 9.58328 7.69231ZM12.0673 8.79121H11.7988C11.1261 9.13461 10.3789 9.34066 9.58328 9.34066C8.78762 9.34066 8.04371 9.13461 7.36773 8.79121H7.09928C5.04221 8.79121 3.37328 10.5632 3.37328 12.7473V13.7363C3.37328 14.6463 4.06867 15.3846 4.92578 15.3846H14.2408C15.0979 15.3846 15.7933 14.6463 15.7933 13.7363V12.7473C15.7933 10.5632 14.1243 8.79121 12.0673 8.79121ZM4.83198 8.33104C4.45679 7.93613 3.94253 7.69231 3.37328 7.69231H1.30328C0.161542 7.69231 -0.766724 8.67788 -0.766724 9.89011V10.989C-0.766724 11.5968 -0.304208 12.0879 0.268276 12.0879H2.39973C2.6035 10.4602 3.52853 9.08997 4.83198 8.33104Z" fill="#2F327D"/>
</g>
<defs>
<clipPath id="clip0_1206_1232">
<rect width="23" height="20" fill="white"/>
</clipPath>
</defs>
</svg>
